<svg width="16.000000" height="16.000000" viewBox="0 0 16 16" fill="none" xmlns="http://www.w3.org/2000/svg" xmlns:xlink="http://www.w3.org/1999/xlink">
	<desc>
			Created with Pixso.
	</desc>
	<defs>
		<clipPath id="clip993_5531">
			<rect id="stream 1" rx="0.000000" width="15.000000" height="15.000000" transform="translate(0.500000 0.500000)" fill="white" fill-opacity="0"/>
		</clipPath>
	</defs>
	<rect id="stream 1" rx="0.000000" width="15.000000" height="15.000000" transform="translate(0.500000 0.500000)" fill="#FFFFFF" fill-opacity="0"/>
	<g clip-path="url(#clip993_5531)">
		<path id="signal-stream" d="M10.51 11.45C10.37 11.45 10.24 11.41 10.12 11.33C10 11.24 9.91 11.12 9.86 10.99C9.8 10.85 9.79 10.7 9.82 10.55C9.84 10.4 9.91 10.27 10.01 10.16C10.54 9.58 10.84 8.81 10.84 8C10.84 7.19 10.54 6.41 10.01 5.84C9.88 5.69 9.81 5.5 9.81 5.3C9.81 5.1 9.89 4.91 10.02 4.77C10.15 4.63 10.33 4.55 10.52 4.55C10.71 4.55 10.88 4.62 11.02 4.76C11.82 5.62 12.26 6.79 12.26 8C12.26 9.21 11.82 10.37 11.02 11.23C10.95 11.3 10.87 11.36 10.79 11.4C10.7 11.43 10.61 11.45 10.51 11.45ZM5.98 11.23C6.11 11.09 6.19 10.9 6.19 10.7C6.19 10.49 6.12 10.3 5.98 10.16C5.45 9.58 5.15 8.81 5.15 8C5.15 7.18 5.45 6.41 5.98 5.83C6.05 5.76 6.1 5.68 6.14 5.59C6.18 5.49 6.2 5.39 6.2 5.29C6.2 5.19 6.18 5.09 6.14 5C6.11 4.9 6.05 4.82 5.99 4.75C5.92 4.68 5.84 4.62 5.75 4.58C5.66 4.54 5.57 4.53 5.48 4.53C5.38 4.53 5.29 4.55 5.2 4.59C5.12 4.63 5.04 4.69 4.97 4.76C4.17 5.62 3.73 6.78 3.73 8C3.73 9.21 4.17 10.37 4.97 11.23C5.1 11.37 5.28 11.45 5.47 11.45C5.66 11.46 5.84 11.38 5.98 11.23ZM13.28 13.08C14.46 11.68 15.11 9.87 15.11 8C15.11 6.12 14.46 4.31 13.28 2.91C13.15 2.76 12.98 2.67 12.79 2.66C12.6 2.65 12.41 2.72 12.28 2.86C12.14 2.99 12.05 3.18 12.04 3.39C12.03 3.59 12.1 3.79 12.23 3.93C13.16 5.05 13.68 6.49 13.68 8C13.68 9.5 13.16 10.94 12.23 12.06C12.1 12.21 12.03 12.4 12.04 12.6C12.05 12.81 12.14 13 12.28 13.13C12.41 13.27 12.6 13.34 12.79 13.33C12.98 13.32 13.15 13.23 13.28 13.08ZM3.71 13.13C3.85 13 3.94 12.81 3.95 12.6C3.96 12.4 3.89 12.21 3.76 12.06C2.83 10.94 2.31 9.5 2.31 8C2.31 6.49 2.83 5.05 3.76 3.93C3.83 3.86 3.88 3.77 3.91 3.68C3.94 3.59 3.95 3.49 3.95 3.39C3.94 3.29 3.92 3.19 3.88 3.1C3.84 3.01 3.78 2.93 3.71 2.86C3.65 2.79 3.56 2.74 3.48 2.71C3.39 2.67 3.3 2.66 3.2 2.66C3.01 2.67 2.84 2.76 2.71 2.91C1.53 4.31 0.88 6.12 0.88 8C0.88 9.87 1.53 11.68 2.71 13.08C2.84 13.23 3.01 13.32 3.2 13.33C3.39 13.34 3.57 13.27 3.71 13.13ZM8 6.85C7.78 6.85 7.58 6.92 7.4 7.04C7.23 7.17 7.09 7.35 7.01 7.56C6.93 7.77 6.91 8 6.95 8.22C6.99 8.44 7.09 8.64 7.24 8.8C7.39 8.96 7.58 9.07 7.79 9.12C7.99 9.16 8.21 9.14 8.4 9.05C8.6 8.96 8.76 8.82 8.88 8.63C9 8.44 9.06 8.22 9.06 8C9.06 7.69 8.95 7.4 8.75 7.19C8.55 6.97 8.28 6.85 8 6.85Z" fill="#5C5C5C" fill-opacity="1.000000" fill-rule="nonzero"/>
	</g>
</svg>
