<svg width="16.000000" height="16.000000" viewBox="0 0 16 16" fill="none" xmlns="http://www.w3.org/2000/svg" xmlns:xlink="http://www.w3.org/1999/xlink">
	<desc>
			Created with Pixso.
	</desc>
	<defs>
		<clipPath id="clip993_5523">
			<rect id="contact 1" rx="0.000000" width="15.000000" height="15.000000" transform="translate(0.500000 0.500000)" fill="white" fill-opacity="0"/>
		</clipPath>
	</defs>
	<rect id="contact 1" rx="0.000000" width="15.000000" height="15.000000" transform="translate(0.500000 0.500000)" fill="#FFFFFF" fill-opacity="0"/>
	<g clip-path="url(#clip993_5523)">
		<path id="Vector" d="M4.66 0.66C3.56 0.66 2.66 1.56 2.66 2.66L2.66 4L2 4C1.63 4 1.33 4.29 1.33 4.66C1.33 5.03 1.63 5.33 2 5.33L2.66 5.33L2.66 7.33L2 7.33C1.63 7.33 1.33 7.63 1.33 8C1.33 8.36 1.63 8.66 2 8.66L2.66 8.66L2.66 10.66L2 10.66C1.63 10.66 1.33 10.96 1.33 11.33C1.33 11.7 1.63 12 2 12L2.66 12L2.66 13.33C2.66 14.43 3.56 15.33 4.66 15.33L12.66 15.33C13.77 15.33 14.66 14.43 14.66 13.33L14.66 2.66C14.66 1.56 13.77 0.66 12.66 0.66L4.66 0.66ZM10 6C10 6.73 9.4 7.33 8.66 7.33C7.93 7.33 7.33 6.73 7.33 6C7.33 5.26 7.93 4.66 8.66 4.66C9.4 4.66 10 5.26 10 6ZM6 10C6 10.73 6.59 11.33 7.33 11.33L10 11.33C10.73 11.33 11.33 10.73 11.33 10C11.33 9.26 10.73 8.66 10 8.66L7.33 8.66C6.59 8.66 6 9.26 6 10Z" fill="#5C5C5C" fill-opacity="1.000000" fill-rule="evenodd"/>
	</g>
</svg>
