<svg width="16.000000" height="16.000000" viewBox="0 0 16 16" fill="none" xmlns="http://www.w3.org/2000/svg" xmlns:xlink="http://www.w3.org/1999/xlink">
	<desc>
			Created with Pixso.
	</desc>
	<defs>
		<clipPath id="clip993_5521">
			<rect id="customer-service 1" rx="0.000000" width="15.000000" height="15.000000" transform="translate(0.500000 0.500000)" fill="white" fill-opacity="0"/>
		</clipPath>
	</defs>
	<rect id="customer-service 1" rx="0.000000" width="15.000000" height="15.000000" transform="translate(0.500000 0.500000)" fill="#FFFFFF" fill-opacity="0"/>
	<g clip-path="url(#clip993_5521)">
		<path id="Vector" d="M15.74 8.58C15.76 9.17 15.55 9.74 15.15 10.18C14.75 10.62 14.2 10.88 13.61 10.9C13.57 10.9 13.54 10.9 13.5 10.9C13.34 10.9 13.19 10.89 13.04 10.85C12.58 11.56 11.98 12.16 11.28 12.61C10.58 13.07 9.8 13.38 8.97 13.52C8.87 13.8 8.68 14.05 8.42 14.21C8.16 14.36 7.86 14.43 7.56 14.38C7.26 14.34 6.98 14.2 6.78 13.97C6.57 13.75 6.46 13.46 6.44 13.15C6.43 12.85 6.52 12.55 6.7 12.31C6.89 12.07 7.15 11.9 7.44 11.83C7.74 11.76 8.05 11.8 8.32 11.93C8.59 12.07 8.81 12.3 8.93 12.57C10.09 12.36 11.14 11.74 11.9 10.83C12.65 9.92 13.06 8.78 13.06 7.59C13.06 4.8 10.79 2.53 8 2.53C5.2 2.53 2.93 4.8 2.93 7.59C2.93 8.46 3.15 9.31 3.57 10.06C3.59 10.09 3.6 10.11 3.6 10.14C3.64 10.25 3.64 10.38 3.59 10.49C3.54 10.6 3.45 10.68 3.34 10.73C3.07 10.84 2.78 10.9 2.49 10.9C2.45 10.9 2.42 10.9 2.38 10.9C1.79 10.87 1.24 10.62 0.84 10.18C0.44 9.74 0.23 9.17 0.25 8.58C0.26 8.34 0.26 8.13 0.25 7.93C0.25 7.74 0.24 7.54 0.25 7.33C0.28 6.76 0.52 6.21 0.94 5.81C1.36 5.42 1.91 5.2 2.49 5.2C3.42 3.08 5.54 1.59 8 1.59C10.45 1.59 12.57 3.08 13.5 5.2C14.08 5.2 14.63 5.42 15.05 5.81C15.47 6.21 15.71 6.76 15.74 7.33C15.75 7.54 15.74 7.74 15.74 7.93C15.73 8.13 15.73 8.34 15.74 8.58ZM11.93 7.59C11.93 8.2 11.79 8.79 11.52 9.33C11.25 9.87 10.87 10.34 10.39 10.71C9.91 11.08 9.36 11.33 8.77 11.45C8.18 11.57 7.57 11.55 6.99 11.39L5.39 12.31C5.31 12.36 5.22 12.38 5.13 12.38C5.04 12.37 4.95 12.34 4.87 12.28C4.8 12.22 4.75 12.15 4.72 12.06C4.69 11.97 4.68 11.88 4.71 11.79L5.11 10.27C4.44 9.54 4.07 8.59 4.06 7.59C4.06 5.43 5.83 3.66 8 3.66C10.16 3.66 11.93 5.43 11.93 7.59ZM6.9 7.59C6.9 7.47 6.85 7.35 6.76 7.26C6.68 7.18 6.56 7.13 6.43 7.13L6.43 7.13C6.34 7.13 6.25 7.15 6.17 7.21C6.09 7.26 6.04 7.33 6 7.42C5.96 7.5 5.96 7.6 5.97 7.69C5.99 7.78 6.04 7.86 6.1 7.93C6.17 7.99 6.25 8.04 6.34 8.05C6.43 8.07 6.53 8.06 6.61 8.03C6.7 7.99 6.77 7.93 6.82 7.85C6.87 7.78 6.9 7.69 6.9 7.59L6.9 7.59ZM8.46 7.59C8.46 7.58 8.46 7.56 8.46 7.55C8.46 7.53 8.46 7.52 8.45 7.5C8.45 7.49 8.45 7.47 8.44 7.46C8.44 7.44 8.43 7.43 8.43 7.42C8.42 7.4 8.41 7.39 8.41 7.37C8.4 7.36 8.39 7.35 8.39 7.33C8.38 7.32 8.37 7.31 8.36 7.3C8.35 7.29 8.34 7.27 8.33 7.26C8.32 7.25 8.3 7.24 8.29 7.23C8.28 7.22 8.27 7.21 8.25 7.2C8.24 7.2 8.23 7.19 8.22 7.18C8.2 7.17 8.19 7.17 8.17 7.16C8.16 7.16 8.15 7.15 8.13 7.15C8.1 7.14 8.07 7.13 8.04 7.13C8 7.12 7.95 7.13 7.9 7.14C7.89 7.14 7.87 7.14 7.86 7.15C7.84 7.15 7.83 7.16 7.82 7.16C7.8 7.17 7.79 7.17 7.77 7.18C7.76 7.19 7.75 7.2 7.74 7.2C7.72 7.21 7.71 7.22 7.7 7.23C7.69 7.24 7.67 7.25 7.66 7.26C7.65 7.27 7.64 7.29 7.63 7.3C7.62 7.31 7.61 7.32 7.61 7.33C7.6 7.35 7.59 7.36 7.58 7.37C7.58 7.39 7.57 7.4 7.56 7.42C7.56 7.43 7.55 7.44 7.55 7.46C7.54 7.47 7.54 7.49 7.54 7.5C7.53 7.52 7.53 7.53 7.53 7.55C7.53 7.56 7.53 7.58 7.53 7.59C7.53 7.61 7.53 7.63 7.53 7.64C7.53 7.66 7.53 7.67 7.54 7.69C7.54 7.7 7.54 7.72 7.55 7.73C7.55 7.75 7.56 7.76 7.56 7.77C7.57 7.79 7.58 7.8 7.58 7.82C7.59 7.83 7.6 7.84 7.61 7.85C7.61 7.87 7.62 7.88 7.63 7.89C7.64 7.9 7.65 7.92 7.66 7.93C7.67 7.94 7.69 7.95 7.7 7.96C7.71 7.97 7.72 7.98 7.74 7.98C7.75 7.99 7.76 8 7.77 8.01C7.8 8.02 7.83 8.03 7.86 8.04C7.87 8.05 7.89 8.05 7.9 8.05C7.93 8.06 7.96 8.06 8 8.06C8.12 8.06 8.24 8.01 8.33 7.93C8.35 7.9 8.37 7.88 8.39 7.85C8.39 7.84 8.4 7.83 8.41 7.82C8.41 7.8 8.42 7.79 8.43 7.77C8.43 7.76 8.44 7.75 8.44 7.73C8.45 7.72 8.45 7.7 8.45 7.69C8.46 7.67 8.46 7.66 8.46 7.64C8.46 7.63 8.46 7.61 8.46 7.59L8.46 7.59ZM10.03 7.59C10.03 7.47 9.98 7.35 9.89 7.26C9.8 7.18 9.68 7.13 9.56 7.13L9.56 7.13C9.46 7.13 9.37 7.15 9.3 7.21C9.22 7.26 9.16 7.33 9.12 7.42C9.09 7.5 9.08 7.6 9.1 7.69C9.12 7.78 9.16 7.86 9.23 7.93C9.29 7.99 9.38 8.04 9.47 8.05C9.56 8.07 9.65 8.06 9.74 8.03C9.82 7.99 9.9 7.93 9.95 7.85C10 7.78 10.03 7.69 10.03 7.59Z" fill="#5C5C5C" fill-opacity="1.000000" fill-rule="nonzero"/>
	</g>
</svg>
