<svg width="16.000000" height="16.000000" viewBox="0 0 16 16" fill="none" xmlns="http://www.w3.org/2000/svg" xmlns:xlink="http://www.w3.org/1999/xlink">
	<desc>
			Created with Pixso.
	</desc>
	<defs>
		<clipPath id="clip993_5530">
			<rect id="data-analytics 1" rx="0.000000" width="15.000000" height="15.000000" transform="translate(0.500000 0.500000)" fill="white" fill-opacity="0"/>
		</clipPath>
	</defs>
	<rect id="data-analytics 1" rx="0.000000" width="15.000000" height="15.000000" transform="translate(0.500000 0.500000)" fill="#FFFFFF" fill-opacity="0"/>
	<g clip-path="url(#clip993_5530)">
		<path id="Vector" d="M1.33 9.77L3.11 9.77C3.35 9.77 3.55 9.97 3.55 10.22L3.55 14.66C3.55 14.91 3.35 15.11 3.11 15.11L1.33 15.11C1.08 15.11 0.88 14.91 0.88 14.66L0.88 10.22C0.88 9.97 1.08 9.77 1.33 9.77Z" fill="#5C5C5C" fill-opacity="1.000000" fill-rule="nonzero"/>
		<path id="Vector" d="M4.89 7.11L6.66 7.11C6.91 7.11 7.11 7.29 7.11 7.51L7.11 14.71C7.11 14.93 6.91 15.11 6.66 15.11L4.89 15.11C4.64 15.11 4.44 14.93 4.44 14.71L4.44 7.51C4.44 7.29 4.64 7.11 4.89 7.11Z" fill="#5C5C5C" fill-opacity="1.000000" fill-rule="nonzero"/>
		<path id="Vector" d="M9.33 8L11.11 8C11.35 8 11.55 8.19 11.55 8.44L11.55 14.66C11.55 14.91 11.35 15.11 11.11 15.11L9.33 15.11C9.08 15.11 8.88 14.91 8.88 14.66L8.88 8.44C8.88 8.19 9.08 8 9.33 8Z" fill="#5C5C5C" fill-opacity="1.000000" fill-rule="nonzero"/>
		<path id="Vector" d="M12.89 6.22L14.66 6.22C14.91 6.22 15.11 6.4 15.11 6.62L15.11 14.7C15.11 14.93 14.91 15.11 14.66 15.11L12.89 15.11C12.64 15.11 12.44 14.93 12.44 14.7L12.44 6.62C12.44 6.4 12.64 6.22 12.89 6.22Z" fill="#5C5C5C" fill-opacity="1.000000" fill-rule="nonzero"/>
		<path id="Vector" d="M13.92 0.88C13.27 0.88 12.74 1.48 12.74 2.22C12.74 2.36 12.76 2.51 12.8 2.64L10.83 3.97C10.57 3.66 10.19 3.51 9.82 3.56C9.44 3.62 9.11 3.87 8.93 4.25L7.19 3.28C7.2 3.22 7.2 3.16 7.2 3.11C7.21 2.57 6.92 2.08 6.47 1.87C6.03 1.67 5.52 1.78 5.18 2.16C4.84 2.54 4.74 3.12 4.92 3.61L2.66 5.51C2.48 5.39 2.28 5.33 2.07 5.33C1.41 5.33 0.88 5.93 0.88 6.66C0.88 7.4 1.41 8 2.07 8C2.72 8 3.25 7.4 3.25 6.66C3.25 6.5 3.23 6.34 3.17 6.19L5.46 4.27C5.91 4.55 6.46 4.47 6.83 4.07L8.82 5.18C8.95 5.84 9.5 6.28 10.1 6.21C10.7 6.13 11.16 5.56 11.16 4.88C11.16 4.85 11.15 4.82 11.15 4.79L13.3 3.35C13.48 3.48 13.7 3.55 13.92 3.55C14.58 3.55 15.11 2.95 15.11 2.22C15.11 1.48 14.58 0.88 13.92 0.88Z" fill="#5C5C5C" fill-opacity="1.000000" fill-rule="nonzero"/>
	</g>
</svg>
