<svg width="16.000000" height="16.000000" viewBox="0 0 16 16" fill="none" xmlns="http://www.w3.org/2000/svg" xmlns:xlink="http://www.w3.org/1999/xlink">
	<desc>
			Created with Pixso.
	</desc>
	<defs>
		<clipPath id="clip993_5532">
			<rect id="my_alg" rx="0.000000" width="15.000000" height="15.000000" transform="translate(0.500000 0.500000)" fill="white" fill-opacity="0"/>
		</clipPath>
	</defs>
	<rect id="my_alg" rx="0.000000" width="15.000000" height="15.000000" transform="translate(0.500000 0.500000)" fill="#FFFFFF" fill-opacity="0"/>
	<g clip-path="url(#clip993_5532)">
		<path id="Vector" d="M6.59 8.46L9.4 8.46L9.4 9.4L6.59 9.4L6.59 8.46Z" fill="#5C5C5C" fill-opacity="1.000000" fill-rule="nonzero"/>
		<path id="Vector" d="M12.98 9.4L10.34 9.4L10.34 9.87C10.34 10.13 10.13 10.34 9.87 10.34L6.12 10.34C5.86 10.34 5.65 10.13 5.65 9.87L5.65 9.4L3.01 9.4C2.41 9.4 1.87 9.01 1.68 8.44L0 3.38L0 13.62C0 14.4 0.63 15.03 1.4 15.03L14.59 15.03C15.36 15.03 16 14.4 16 13.62L16 3.38L14.31 8.44C14.12 9.01 13.58 9.4 12.98 9.4Z" fill="#5C5C5C" fill-opacity="1.000000" fill-rule="nonzero"/>
		<path id="Vector" d="M9.87 0.96L6.12 0.96C5.34 0.96 4.71 1.59 4.71 2.37L4.71 2.84L0.8 2.84L2.57 8.14C2.63 8.34 2.81 8.46 3.01 8.46L5.65 8.46L5.65 8C5.65 7.74 5.86 7.53 6.12 7.53L9.87 7.53C10.13 7.53 10.34 7.74 10.34 8L10.34 8.46L12.98 8.46C13.18 8.46 13.36 8.34 13.42 8.14L15.19 2.84L11.28 2.84L11.28 2.37C11.28 1.59 10.65 0.96 9.87 0.96ZM5.65 2.84L5.65 2.37C5.65 2.11 5.86 1.9 6.12 1.9L9.87 1.9C10.13 1.9 10.34 2.11 10.34 2.37L10.34 2.84L5.65 2.84Z" fill="#5C5C5C" fill-opacity="1.000000" fill-rule="nonzero"/>
	</g>
</svg>
