<svg width="16.000000" height="16.000000" viewBox="0 0 16 16" fill="none" xmlns="http://www.w3.org/2000/svg" xmlns:xlink="http://www.w3.org/1999/xlink">
	<desc>
			Created with Pixso.
	</desc>
	<defs/>
	<rect id="Frame 345" rx="0.000000" width="15.000000" height="15.000000" transform="translate(0.500000 0.500000)" fill="#FFFFFF" fill-opacity="0"/>
	<path id="image 1 (Traced)" d="M4.15 1.92L4.15 2.24L3.08 2.25L2.01 2.26L1.89 2.32C1.76 2.4 1.66 2.54 1.62 2.68C1.59 2.82 1.58 4.53 1.62 4.78C1.71 5.42 1.99 5.99 2.43 6.43C2.85 6.86 3.32 7.12 3.91 7.25C4.03 7.27 4.13 7.3 4.14 7.3C4.14 7.31 4.16 7.46 4.17 7.63C4.23 8.36 4.46 9.02 4.88 9.61C5.08 9.9 5.5 10.31 5.78 10.52C6.08 10.72 6.51 10.94 6.86 11.05C7.02 11.09 7.15 11.14 7.15 11.16C7.15 11.17 7.05 11.47 6.93 11.83L6.72 12.47L5.91 12.48L5.11 12.48L4.98 12.55C4.77 12.65 4.73 12.74 4.44 13.58C4.29 14.01 4.17 14.37 4.17 14.38C4.17 14.4 11.82 14.4 11.82 14.38C11.82 14.37 11.7 14.01 11.55 13.58C11.26 12.74 11.22 12.65 11.01 12.55L10.88 12.48L10.08 12.48L9.27 12.47L9.06 11.83C8.94 11.47 8.84 11.17 8.84 11.16C8.84 11.14 8.97 11.09 9.13 11.05C9.48 10.94 9.91 10.72 10.21 10.52C10.49 10.31 10.91 9.9 11.11 9.61C11.53 9.02 11.76 8.36 11.82 7.63C11.83 7.46 11.85 7.31 11.85 7.3C11.86 7.3 11.96 7.27 12.07 7.25C12.37 7.18 12.62 7.09 12.87 6.96C13.16 6.8 13.32 6.67 13.56 6.43C14 5.99 14.28 5.42 14.37 4.78C14.4 4.53 14.4 2.82 14.37 2.68C14.33 2.54 14.23 2.4 14.1 2.32L13.98 2.26L12.91 2.25L11.84 2.24L11.84 1.92L11.84 1.6L8 1.6L4.15 1.6L4.15 1.92ZM4.15 4.76L4.15 6L4.08 5.98C3.94 5.95 3.66 5.79 3.5 5.66C3.24 5.45 3.05 5.18 2.94 4.83C2.9 4.71 2.89 4.59 2.88 4.1L2.86 3.52L3.5 3.52L4.15 3.52L4.15 4.76ZM13.11 4.1C13.1 4.65 13.1 4.69 13.04 4.88C12.89 5.32 12.59 5.68 12.22 5.87C12.1 5.92 11.97 5.98 11.93 5.99L11.84 6L11.84 4.76L11.84 3.52L12.49 3.52L13.12 3.52L13.11 4.1ZM8.09 4.38C8.14 4.48 8.26 4.76 8.38 5L8.58 5.44L9.24 5.45L9.9 5.46L9.43 6.08C9.18 6.42 8.97 6.71 8.97 6.73C8.97 6.75 9.04 7.04 9.12 7.37C9.2 7.71 9.27 7.98 9.26 7.98C9.26 7.99 8.97 7.83 8.63 7.64L8 7.29L7.36 7.64C7.02 7.83 6.73 7.99 6.73 7.98C6.72 7.98 6.79 7.71 6.87 7.37C6.95 7.04 7.02 6.75 7.02 6.73C7.02 6.71 6.81 6.42 6.56 6.08L6.09 5.46L6.75 5.45L7.41 5.44L7.61 5C7.72 4.76 7.85 4.48 7.9 4.38C7.94 4.28 7.99 4.2 8 4.2C8 4.2 8.05 4.28 8.09 4.38Z" fill="#5C5C5C" fill-opacity="1.000000" fill-rule="evenodd"/>
</svg>
