<svg width="16.000000" height="16.000000" viewBox="0 0 16 16" fill="none" xmlns="http://www.w3.org/2000/svg" xmlns:xlink="http://www.w3.org/1999/xlink">
	<desc>
			Created with Pixso.
	</desc>
	<defs>
		<clipPath id="clip993_5528">
			<rect id="setting 1" rx="0.000000" width="15.000000" height="15.000000" transform="translate(0.500000 0.500000)" fill="white" fill-opacity="0"/>
		</clipPath>
	</defs>
	<rect id="setting 1" rx="0.000000" width="15.000000" height="15.000000" transform="translate(0.500000 0.500000)" fill="#FFFFFF" fill-opacity="0"/>
	<g clip-path="url(#clip993_5528)">
		<path id="Vector" d="M13.47 5.86C13.23 5.82 13 5.73 12.8 5.6C12.6 5.46 12.43 5.29 12.3 5.08C12.18 4.87 12.11 4.64 12.09 4.4C12.07 4.16 12.1 3.92 12.19 3.7C12.25 3.55 12.26 3.39 12.22 3.24C12.17 3.09 12.09 2.96 11.96 2.86C11.42 2.41 10.8 2.06 10.14 1.82C9.99 1.76 9.82 1.76 9.67 1.8C9.51 1.84 9.37 1.93 9.27 2.06C9.12 2.25 8.93 2.4 8.71 2.51C8.48 2.61 8.24 2.67 8 2.67C7.75 2.67 7.5 2.61 7.28 2.51C7.06 2.4 6.87 2.25 6.72 2.06C6.62 1.93 6.48 1.84 6.32 1.8C6.17 1.76 6 1.76 5.85 1.82C5.24 2.04 4.66 2.36 4.15 2.76C4.02 2.86 3.93 2.99 3.88 3.15C3.84 3.31 3.85 3.47 3.91 3.62C4 3.85 4.04 4.1 4.02 4.35C4 4.59 3.93 4.83 3.79 5.05C3.66 5.26 3.48 5.44 3.27 5.57C3.06 5.7 2.81 5.78 2.56 5.8C2.4 5.82 2.24 5.89 2.12 6C2 6.11 1.92 6.25 1.89 6.41C1.81 6.78 1.77 7.17 1.77 7.55C1.77 7.87 1.8 8.19 1.85 8.5C1.88 8.67 1.96 8.82 2.08 8.93C2.2 9.05 2.36 9.12 2.53 9.13C2.78 9.16 3.03 9.24 3.25 9.38C3.47 9.52 3.65 9.7 3.78 9.92C3.91 10.14 3.98 10.39 3.99 10.64C4 10.89 3.95 11.15 3.85 11.38C3.78 11.53 3.76 11.69 3.8 11.85C3.83 12.02 3.93 12.16 4.06 12.26C4.6 12.7 5.21 13.05 5.87 13.28C5.95 13.31 6.04 13.33 6.13 13.33C6.25 13.33 6.37 13.3 6.48 13.24C6.59 13.19 6.68 13.11 6.75 13.01C6.9 12.8 7.1 12.63 7.33 12.51C7.56 12.39 7.82 12.33 8.08 12.33C8.33 12.33 8.58 12.39 8.81 12.5C9.03 12.61 9.23 12.77 9.38 12.97C9.48 13.1 9.62 13.2 9.78 13.24C9.95 13.29 10.12 13.28 10.28 13.22C10.88 12.98 11.44 12.65 11.93 12.25C12.06 12.14 12.15 12.01 12.19 11.85C12.23 11.7 12.22 11.54 12.16 11.39C12.06 11.16 12.02 10.92 12.04 10.67C12.05 10.42 12.12 10.19 12.25 9.97C12.38 9.76 12.55 9.58 12.76 9.45C12.97 9.31 13.21 9.22 13.46 9.2C13.62 9.17 13.77 9.1 13.89 8.99C14 8.88 14.08 8.73 14.11 8.58C14.17 8.24 14.21 7.89 14.22 7.55C14.22 7.18 14.18 6.82 14.11 6.46C14.08 6.31 14.01 6.17 13.89 6.06C13.78 5.95 13.63 5.88 13.47 5.86ZM10.07 7.55C10.07 7.95 9.95 8.34 9.72 8.68C9.49 9.01 9.17 9.27 8.79 9.43C8.41 9.58 7.99 9.62 7.59 9.54C7.19 9.46 6.82 9.27 6.53 8.99C6.24 8.7 6.04 8.34 5.96 7.94C5.88 7.55 5.92 7.14 6.08 6.77C6.24 6.4 6.5 6.08 6.84 5.86C7.18 5.63 7.58 5.51 8 5.51C8.54 5.51 9.07 5.73 9.46 6.11C9.85 6.49 10.07 7.01 10.07 7.55Z" fill="#5C5C5C" fill-opacity="1.000000" fill-rule="evenodd"/>
	</g>
</svg>
