<svg width="16.000000" height="16.000000" viewBox="0 0 16 16" fill="none" xmlns="http://www.w3.org/2000/svg" xmlns:xlink="http://www.w3.org/1999/xlink">
	<desc>
			Created with Pixso.
	</desc>
	<defs>
		<clipPath id="clip993_5527">
			<rect id="light-bulb 1" rx="0.000000" width="15.000000" height="15.000000" transform="translate(0.500000 0.500000)" fill="white" fill-opacity="0"/>
		</clipPath>
	</defs>
	<rect id="light-bulb 1" rx="0.000000" width="15.000000" height="15.000000" transform="translate(0.500000 0.500000)" fill="#FFFFFF" fill-opacity="0"/>
	<g clip-path="url(#clip993_5527)">
		<path id="Vector" d="M5.69 11.39C5.73 11.66 5.76 11.89 5.76 12.16L10.23 12.16C10.23 11.89 10.26 11.63 10.29 11.39L5.69 11.39Z" fill="#5C5C5C" fill-opacity="1.000000" fill-rule="evenodd"/>
		<path id="Vector" d="M5.76 12.83L5.76 14C5.76 14.2 5.9 14.33 6.1 14.33L6.2 14.33C6.36 15.16 7.13 15.83 8 15.83C8.9 15.83 9.63 15.2 9.8 14.33L9.9 14.33C10.1 14.33 10.23 14.2 10.23 14L10.23 12.83L5.76 12.83Z" fill="#5C5C5C" fill-opacity="1.000000" fill-rule="evenodd"/>
		<path id="Vector" d="M7.73 0.16C5.36 0.29 3.39 2.16 3.13 4.53C3 5.86 3.39 7.16 4.23 8.16C4.86 8.93 5.33 9.79 5.56 10.7L10.43 10.7C10.66 9.79 11.13 8.89 11.76 8.13C12.5 7.26 12.89 6.16 12.89 5.03C12.89 2.26 10.53 0.03 7.73 0.16Z" fill="#5C5C5C" fill-opacity="1.000000" fill-rule="evenodd"/>
	</g>
</svg>
