<svg width="16.000000" height="16.000000" viewBox="0 0 16 16" fill="none" xmlns="http://www.w3.org/2000/svg" xmlns:xlink="http://www.w3.org/1999/xlink">
	<desc>
			Created with Pixso.
	</desc>
	<defs>
		<clipPath id="clip993_5526">
			<rect id="building 1" rx="0.000000" width="15.000000" height="15.000000" transform="translate(0.500000 0.500000)" fill="white" fill-opacity="0"/>
		</clipPath>
	</defs>
	<rect id="building 1" rx="0.000000" width="15.000000" height="15.000000" transform="translate(0.500000 0.500000)" fill="#FFFFFF" fill-opacity="0"/>
	<g clip-path="url(#clip993_5526)">
		<path id="Vector" d="M11.33 2.08C11.33 1.65 10.93 1.33 10.51 1.43L2.51 3.28C2.21 3.35 2 3.62 2 3.93L2 14L1.66 14C1.48 14 1.33 14.14 1.33 14.33C1.33 14.51 1.48 14.66 1.66 14.66L2.33 14.66L2.33 14.66L2.33 14.66L5.33 14.66L5.33 12.66C5.33 12.29 5.63 12 6 12L7.33 12C7.7 12 8 12.29 8 12.66L8 14.66L11 14.66L11 14.66L11 14.66L11.33 14.66L11.33 2.08ZM4.33 5.33C4.15 5.33 4 5.48 4 5.66L4 6.33C4 6.51 4.15 6.66 4.33 6.66L5 6.66C5.18 6.66 5.33 6.51 5.33 6.33L5.33 5.66C5.33 5.48 5.18 5.33 5 5.33L4.33 5.33ZM4 7.66C4 7.48 4.15 7.33 4.33 7.33L5 7.33C5.18 7.33 5.33 7.48 5.33 7.66L5.33 8.33C5.33 8.51 5.18 8.66 5 8.66L4.33 8.66C4.15 8.66 4 8.51 4 8.33L4 7.66ZM4.33 9.33C4.15 9.33 4 9.48 4 9.66L4 10.33C4 10.51 4.15 10.66 4.33 10.66L5 10.66C5.18 10.66 5.33 10.51 5.33 10.33L5.33 9.66C5.33 9.48 5.18 9.33 5 9.33L4.33 9.33ZM6 5.66C6 5.48 6.15 5.33 6.33 5.33L7 5.33C7.18 5.33 7.33 5.48 7.33 5.66L7.33 6.33C7.33 6.51 7.18 6.66 7 6.66L6.33 6.66C6.15 6.66 6 6.51 6 6.33L6 5.66ZM6.33 7.33C6.15 7.33 6 7.48 6 7.66L6 8.33C6 8.51 6.15 8.66 6.33 8.66L7 8.66C7.18 8.66 7.33 8.51 7.33 8.33L7.33 7.66C7.33 7.48 7.18 7.33 7 7.33L6.33 7.33ZM6 9.66C6 9.48 6.15 9.33 6.33 9.33L7 9.33C7.18 9.33 7.33 9.48 7.33 9.66L7.33 10.33C7.33 10.51 7.18 10.66 7 10.66L6.33 10.66C6.15 10.66 6 10.51 6 10.33L6 9.66ZM8.33 5.33C8.15 5.33 8 5.48 8 5.66L8 6.33C8 6.51 8.15 6.66 8.33 6.66L9 6.66C9.18 6.66 9.33 6.51 9.33 6.33L9.33 5.66C9.33 5.48 9.18 5.33 9 5.33L8.33 5.33ZM8 7.66C8 7.48 8.15 7.33 8.33 7.33L9 7.33C9.18 7.33 9.33 7.48 9.33 7.66L9.33 8.33C9.33 8.51 9.18 8.66 9 8.66L8.33 8.66C8.15 8.66 8 8.51 8 8.33L8 7.66ZM8.33 9.33C8.15 9.33 8 9.48 8 9.66L8 10.33C8 10.51 8.15 10.66 8.33 10.66L9 10.66C9.18 10.66 9.33 10.51 9.33 10.33L9.33 9.66C9.33 9.48 9.18 9.33 9 9.33L8.33 9.33Z" fill="#5C5C5C" fill-opacity="1.000000" fill-rule="evenodd"/>
		<path id="Vector" d="M12 3.79L12 14.66L13.66 14.66L13.66 14.66L13.66 14.66L14.33 14.66C14.51 14.66 14.66 14.51 14.66 14.33C14.66 14.14 14.51 14 14.33 14L14 14L14 5.2C14 4.95 13.85 4.72 13.63 4.6L12 3.79Z" fill="#5C5C5C" fill-opacity="1.000000" fill-rule="evenodd"/>
		<path id="Vector" d="M7.33 14.66L6 14.66L6 12.66L7.33 12.66L7.33 14.66Z" fill="#5C5C5C" fill-opacity="1.000000" fill-rule="evenodd"/>
	</g>
</svg>
