<svg width="16.000000" height="16.000000" viewBox="0 0 16 16" fill="none" xmlns="http://www.w3.org/2000/svg" xmlns:xlink="http://www.w3.org/1999/xlink">
	<desc>
			Created with Pixso.
	</desc>
	<defs/>
	<rect id="news_icon" rx="0.000000" width="15.000000" height="15.000000" transform="translate(0.500000 0.500000)" fill="#FFFFFF" fill-opacity="0"/>
	<path id="image 191 (Traced)" d="M14.41 1.02C14.34 1.04 14.23 1.15 14 1.41C12.85 2.68 11.42 3.59 9.77 4.09C9.6 4.14 9.33 4.22 9.16 4.25L8.87 4.31L8.87 7.12L8.87 9.92L9.16 9.99C10.78 10.34 12.39 11.22 13.58 12.4C13.76 12.58 14.02 12.85 14.14 12.98C14.37 13.23 14.45 13.27 14.66 13.23C14.79 13.21 14.96 13.04 14.99 12.91C14.99 12.86 15 10.22 14.99 7.05L14.99 1.27L14.91 1.17C14.78 1.01 14.62 0.96 14.41 1.02ZM7.78 4.47C7.7 4.48 6.6 4.49 5.34 4.49L3.05 4.49L2.96 4.55C2.78 4.67 2.75 4.77 2.75 5.08L2.75 5.37L2.02 5.37C1.32 5.37 1.3 5.37 1.21 5.43C1.16 5.46 1.09 5.53 1.06 5.58L1 5.68L1 7.12L1 8.56L1.06 8.65C1.09 8.7 1.16 8.77 1.21 8.81C1.3 8.87 1.32 8.87 2.02 8.87L2.75 8.87L2.75 9.15C2.75 9.4 2.75 9.45 2.81 9.53C2.92 9.69 3.03 9.74 3.25 9.74L3.44 9.74L4.33 12.12C4.86 13.53 5.25 14.54 5.3 14.61C5.53 14.95 5.96 15.08 6.35 14.94C6.49 14.88 6.57 14.82 7.14 14.25C7.91 13.49 7.93 13.46 7.93 13.08L7.93 12.81L7.17 11.29C6.75 10.45 6.41 9.76 6.41 9.75C6.41 9.73 7.86 9.76 7.94 9.79L8 9.81L8 7.12C8 4.99 7.99 4.44 7.96 4.44C7.94 4.44 7.86 4.45 7.78 4.47Z" fill="#5C5C5C" fill-opacity="1.000000" fill-rule="evenodd"/>
</svg>
