<svg width="16.000000" height="16.000000" viewBox="0 0 16 16" fill="none" xmlns="http://www.w3.org/2000/svg" xmlns:xlink="http://www.w3.org/1999/xlink">
	<desc>
			Created with Pixso.
	</desc>
	<defs>
		<clipPath id="clip993_5524">
			<rect id="blogging 1" rx="0.000000" width="15.000000" height="15.000000" transform="translate(0.500000 0.500000)" fill="white" fill-opacity="0"/>
		</clipPath>
	</defs>
	<rect id="blogging 1" rx="0.000000" width="15.000000" height="15.000000" transform="translate(0.500000 0.500000)" fill="#FFFFFF" fill-opacity="0"/>
	<g clip-path="url(#clip993_5524)">
		<path id="Vector" d="M12.43 1.92L2.39 1.92C1.62 1.92 1 2.54 1 3.31L1 4.67L13.83 4.67L13.83 3.31C13.83 2.54 13.2 1.92 12.43 1.92ZM2.96 3.69C2.74 3.69 2.57 3.51 2.57 3.29C2.57 3.07 2.74 2.89 2.96 2.89C3.18 2.89 3.36 3.07 3.36 3.29C3.36 3.51 3.18 3.69 2.96 3.69ZM4.36 3.69C4.14 3.69 3.96 3.51 3.96 3.29C3.96 3.07 4.14 2.89 4.36 2.89C4.58 2.89 4.75 3.07 4.75 3.29C4.75 3.51 4.58 3.69 4.36 3.69ZM5.75 3.69C5.53 3.69 5.36 3.51 5.36 3.29C5.36 3.07 5.53 2.89 5.75 2.89C5.97 2.89 6.15 3.07 6.15 3.29C6.15 3.51 5.97 3.69 5.75 3.69Z" fill="#5C5C5C" fill-opacity="1.000000" fill-rule="nonzero"/>
		<path id="Vector" d="M11.91 9.15L8.99 12.07C8.93 12.13 8.89 12.21 8.87 12.29L8.65 13.59C8.61 13.87 8.85 14.12 9.14 14.07L10.43 13.85C10.52 13.84 10.6 13.8 10.66 13.74L13.58 10.82L11.91 9.15Z" fill="#5C5C5C" fill-opacity="1.000000" fill-rule="nonzero"/>
		<path id="Vector" d="M8.13 12.16C8.18 11.91 8.3 11.68 8.48 11.51L11.37 8.62L12.45 7.55C12.81 7.18 13.3 6.98 13.81 6.98C13.82 6.98 13.82 6.98 13.83 6.98L13.83 5.42L1 5.42L1 11.52C1 12.29 1.61 12.91 2.39 12.91L8 12.91L8.13 12.16Z" fill="#5C5C5C" fill-opacity="1.000000" fill-rule="nonzero"/>
		<path id="Vector" d="M14.65 8.07C14.18 7.61 13.44 7.61 12.98 8.07L12.43 8.62L14.1 10.29L14.65 9.75C15.11 9.28 15.11 8.53 14.65 8.07Z" fill="#5C5C5C" fill-opacity="1.000000" fill-rule="nonzero"/>
	</g>
</svg>
