<svg width="74.121094" height="18.234375" viewBox="0 0 74.1211 18.2344" fill="none" xmlns="http://www.w3.org/2000/svg" xmlns:xlink="http://www.w3.org/1999/xlink">
	<desc>
			Created with Pixso.
	</desc>
	<defs/>
	<path id="BetLab" d="M72.83 16.55Q74.12 14.88 74.12 11.76L74.12 11.56Q74.12 8.48 72.83 6.78Q72.35 6.15 71.73 5.76Q70.66 5.08 69.17 5.08Q68.18 5.08 67.4 5.48Q66.8 5.79 66.32 6.33L66.32 0L62.37 0L62.37 18L65.91 18L66.08 16.69Q66.67 17.47 67.46 17.85Q68.23 18.23 69.19 18.23Q70.67 18.23 71.73 17.56Q72.35 17.17 72.83 16.55ZM48.05 14.83L40.89 14.83L40.89 0.93L36.78 0.93L36.78 18L48.05 18L48.05 14.83ZM56.37 16.86Q56.54 17.61 56.75 18L60.7 18L60.7 17.8Q60.18 16.87 60.16 15.12L60.16 9.51Q60.14 8.14 59.51 7.16Q59.19 6.66 58.72 6.26Q57.31 5.08 54.89 5.08Q52.46 5.08 50.9 6.23Q50.01 6.88 49.63 7.75Q49.33 8.42 49.33 9.22L53.28 9.22Q53.28 8.54 53.62 8.19Q53.97 7.83 54.69 7.83Q55.33 7.83 55.7 8.16Q56.2 8.58 56.2 9.58L56.2 10.25L54.98 10.25Q52.07 10.25 50.55 11.3Q49.98 11.7 49.62 12.24Q49.03 13.14 49.03 14.42Q49.03 15.22 49.32 15.88Q49.63 16.59 50.28 17.15Q50.71 17.51 51.2 17.76Q52.14 18.23 53.33 18.23Q54.59 18.23 55.49 17.66Q55.99 17.35 56.37 16.86ZM69.67 8.91Q70.16 9.69 70.16 11.51Q70.16 13.17 69.97 13.83Q69.78 14.52 69.32 14.86Q68.88 15.19 68.2 15.19Q67.28 15.19 66.75 14.74Q66.49 14.52 66.32 14.19L66.32 9.15Q66.51 8.78 66.8 8.55Q67.32 8.13 68.17 8.13Q68.78 8.13 69.19 8.41Q69.47 8.59 69.67 8.91ZM55.5 15.1Q55.01 15.42 54.28 15.42Q53.86 15.42 53.55 15.23Q53.44 15.17 53.35 15.08Q53.22 14.96 53.13 14.81Q52.99 14.55 52.99 14.21Q52.99 13.38 53.4 12.93Q53.91 12.36 55.05 12.36L56.2 12.36L56.2 14.39Q55.99 14.78 55.5 15.1Z" fill="#252E35" fill-opacity="1.000000" fill-rule="evenodd"/>
	<path id="BetLab" d="M0 0.93L0 18L6.92 18Q10.04 17.97 11.63 16.71Q12 16.42 12.28 16.06Q13.21 14.87 13.21 12.94Q13.21 11.77 12.7 10.91Q12.61 10.75 12.5 10.6Q12.37 10.42 12.21 10.26Q11.53 9.57 10.45 9.29Q11.4 8.93 11.98 8.25Q12.12 8.09 12.24 7.91Q12.25 7.89 12.26 7.87Q12.85 6.95 12.85 5.64Q12.85 4.25 12.22 3.26Q11.81 2.62 11.13 2.14Q9.42 0.93 6.12 0.93L0 0.93ZM32.96 5.32L32.96 2.16L29.01 2.16L29.01 5.32L27.39 5.32L27.39 8.06L29.01 8.06L29.01 14.35Q29.01 16.31 29.98 17.27Q30.96 18.23 33 18.23Q34.01 18.23 34.95 17.97Q35.09 17.93 35.22 17.89L35.22 15.07Q34.82 15.14 34.24 15.14Q33.48 15.14 33.22 14.85Q32.96 14.57 32.96 13.86L32.96 8.06L35.05 8.06L35.05 5.32L32.96 5.32ZM6.25 8.05L4.11 8.05L4.11 4.11L6.12 4.11Q7.51 4.11 8.13 4.58Q8.21 4.65 8.28 4.72Q8.75 5.2 8.75 6.14Q8.75 6.88 8.39 7.34Q8.29 7.46 8.17 7.55Q7.6 8.03 6.25 8.05ZM17.63 17.22Q19.21 18.23 21.43 18.23Q22.65 18.23 23.75 17.86Q24.05 17.75 24.34 17.63Q25.69 17.02 26.43 16L24.63 13.87Q24.25 14.34 23.77 14.64Q22.9 15.18 21.7 15.18Q20.71 15.18 20.03 14.72Q19.94 14.65 19.85 14.57Q19.72 14.47 19.61 14.34Q19.09 13.78 18.92 12.9L26.77 12.9L26.77 11.36Q26.77 8.56 25.39 6.93Q25.31 6.83 25.23 6.74Q24.84 6.32 24.38 6.01Q23.01 5.08 21.01 5.08Q19.11 5.08 17.73 5.9Q17.16 6.23 16.7 6.68Q16.05 7.32 15.62 8.2Q14.9 9.69 14.9 11.63L14.9 11.96Q14.9 13.83 15.71 15.23Q16.11 15.92 16.71 16.49Q17.14 16.9 17.63 17.22ZM19.98 8.39Q20.4 8.13 20.98 8.13Q21.81 8.13 22.3 8.54Q22.37 8.59 22.42 8.65Q22.47 8.7 22.51 8.75Q22.93 9.26 22.91 10.12L22.91 10.42L18.92 10.42Q19.14 8.9 19.98 8.39ZM4.11 14.83L4.11 10.74L6.99 10.74Q8.05 10.75 8.58 11.28Q9.11 11.81 9.11 12.89Q9.11 13.56 8.8 14.01Q8.68 14.18 8.51 14.32Q7.92 14.83 6.8 14.83L4.11 14.83Z" fill="#FFB80C" fill-opacity="1.000000" fill-rule="evenodd"/>
</svg>
