<svg width="104.000000" height="7.000000" viewBox="0 0 104 7" fill="none" xmlns="http://www.w3.org/2000/svg" xmlns:xlink="http://www.w3.org/1999/xlink">
	<desc>
			Created with Pixso.
	</desc>
	<defs/>
	<path id="image 382 (Traced)" d="M101.43 0.02C101.3 0.07 101.24 0.25 101.27 0.42C101.27 0.47 101.6 0.94 102.24 1.84L103.2 3.17L98.67 3.18L0.16 3.2L0.1 3.26C0.07 3.29 0.03 3.37 0.02 3.43C-0.01 3.53 -0.01 3.58 0.02 3.66C0.03 3.71 0.13 3.81 0.16 3.84C0.16 3.84 94.34 3.81 98.67 3.82L103.2 3.83L102.25 5.15C101.73 5.88 101.29 6.51 101.28 6.55C101.23 6.73 101.28 6.9 101.4 6.97C101.54 7.05 101.51 7.08 102.79 5.3C103.59 4.19 103.98 3.63 103.99 3.58C104 3.53 104 3.47 103.99 3.43C103.98 3.38 103.59 2.81 102.8 1.71C101.79 0.31 101.54 -0.02 101.49 0C101.49 0 101.46 0.01 101.43 0.02Z" fill="#757B81" fill-opacity="1.000000" fill-rule="evenodd"/>
</svg>
