<svg width="6.000000" height="8.000000" viewBox="0 0 6 8" fill="none" xmlns="http://www.w3.org/2000/svg" xmlns:xlink="http://www.w3.org/1999/xlink">
	<desc>
			Created with Pixso.
	</desc>
	<defs/>
	<path id="В" d="M0.26 8C0.17 8 0.11 7.97 0.06 7.93C0.02 7.87 0 7.81 0 7.73L0 0.27C0 0.19 0.02 0.12 0.06 0.08C0.11 0.02 0.17 0 0.26 0L3.38 0C3.95 0 4.42 0.09 4.77 0.28C5.14 0.46 5.41 0.71 5.57 1.04C5.75 1.36 5.83 1.71 5.83 2.11C5.83 2.42 5.78 2.69 5.67 2.92C5.58 3.14 5.45 3.32 5.3 3.47C5.15 3.61 5 3.71 4.85 3.79C5.15 3.93 5.41 4.17 5.64 4.5C5.88 4.83 6 5.22 6 5.69C6 6.11 5.9 6.49 5.71 6.84C5.52 7.19 5.24 7.47 4.85 7.69C4.48 7.89 4.02 8 3.46 8L0.26 8ZM1.11 7.07L3.32 7.07C3.81 7.07 4.19 6.94 4.46 6.67C4.72 6.4 4.85 6.08 4.85 5.69C4.85 5.28 4.72 4.95 4.46 4.69C4.19 4.43 3.81 4.29 3.32 4.29L1.11 4.29L1.11 7.07ZM1.11 3.38L3.21 3.38C3.7 3.38 4.07 3.27 4.32 3.05C4.57 2.82 4.69 2.51 4.69 2.12C4.69 1.73 4.57 1.43 4.32 1.23C4.07 1.02 3.7 0.92 3.21 0.92L1.11 0.92L1.11 3.38Z" fill="#FFFFFF" fill-opacity="1.000000" fill-rule="nonzero"/>
</svg>
