<svg width="14.000000" height="12.000000" viewBox="0 0 14 12" fill="none" xmlns="http://www.w3.org/2000/svg" xmlns:xlink="http://www.w3.org/1999/xlink">
	<desc>
			Created with Pixso.
	</desc>
	<defs/>
	<path id="image 19572447 (Traced)" d="M7.67 0.01C7.64 0.01 6.45 0.52 5.05 1.14L2.49 2.27L2.88 2.28L3.26 2.29L6.02 1.61C7.54 1.24 8.8 0.94 8.82 0.93C8.84 0.92 8.8 0.83 8.67 0.6C8.53 0.35 8.46 0.26 8.35 0.18C8.16 0.02 7.94 -0.03 7.67 0.01ZM10.5 0.96C10.46 0.97 9.22 1.26 7.74 1.62L5.06 2.27L8.31 2.28C10.1 2.28 11.57 2.28 11.58 2.28C11.6 2.26 11.33 1.43 11.27 1.33C11.2 1.21 11.07 1.09 10.93 1.03C10.84 0.99 10.62 0.95 10.5 0.96ZM0.51 2.8C0.36 2.84 0.17 3 0.08 3.14L0 3.27L0 7.38L0 11.49L0.06 11.6C0.14 11.73 0.3 11.87 0.45 11.93L0.57 11.98L6.54 11.99L12.51 12L12.67 11.94C12.87 11.88 13.02 11.76 13.11 11.58L13.19 11.45L13.2 10.39L13.2 9.34L10.75 9.33C8.07 9.32 8.23 9.33 7.9 9.18C7.62 9.06 7.38 8.8 7.25 8.51C7.2 8.38 7.19 8.34 7.19 7.37C7.19 6.26 7.19 6.25 7.39 5.97C7.55 5.73 7.79 5.55 8.11 5.45L8.29 5.39L10.75 5.39L13.2 5.38L13.2 4.35C13.19 3.34 13.19 3.32 13.13 3.2C13.05 3.05 12.9 2.91 12.75 2.84L12.64 2.78L6.62 2.78C2.62 2.78 0.57 2.79 0.51 2.8ZM8.23 5.92C8.04 5.99 7.86 6.15 7.78 6.32C7.73 6.45 7.73 6.51 7.73 7.36C7.73 8.36 7.73 8.39 7.91 8.58C8.04 8.71 8.17 8.79 8.36 8.82C8.47 8.84 9.15 8.85 10.96 8.84L13.41 8.83L13.54 8.78C13.61 8.75 13.72 8.67 13.79 8.6C13.99 8.4 14 8.38 14 7.34C14 6.42 14 6.42 13.93 6.3C13.85 6.15 13.71 6.01 13.55 5.94L13.43 5.88L10.9 5.88C8.42 5.87 8.37 5.87 8.23 5.92ZM9.94 6.96C10.1 7.03 10.15 7.14 10.15 7.38C10.15 7.74 10.04 7.83 9.63 7.83C9.35 7.83 9.27 7.81 9.17 7.67C9.13 7.6 9.12 7.56 9.13 7.35C9.14 7.14 9.14 7.11 9.21 7.05C9.24 7.02 9.31 6.97 9.36 6.95C9.48 6.91 9.83 6.91 9.94 6.96Z" fill="#52638A" fill-opacity="1.000000" fill-rule="evenodd"/>
</svg>
