<svg width="74.460938" height="11.000549" viewBox="0 0 74.4609 11.0005" fill="none" xmlns="http://www.w3.org/2000/svg" xmlns:xlink="http://www.w3.org/1999/xlink">
	<desc>
			Created with Pixso.
	</desc>
	<defs/>
	<path id="Vector" d="M26.44 0.49L25.97 3.3C25.21 2.99 24.4 2.79 23.58 2.7C21.87 2.7 20.31 3.88 20.31 5.59C20.31 7.72 21.66 8.26 23.19 8.19C23.78 8.16 24.36 8.02 24.89 7.78L25.88 7.47L26.32 10.08L25.52 10.38C24.49 10.84 23.37 11.04 22.25 10.99C18.42 10.91 16.68 8.19 16.92 5.42C17.01 4.57 17.27 3.74 17.69 2.99C18.11 2.24 18.68 1.59 19.37 1.06C20.49 0.33 21.81 -0.04 23.15 0C24.26 0.02 25.36 0.18 26.42 0.49L26.44 0.49ZM57.07 0.24L55.01 10.79L58.17 10.79L58.97 6.64L61.04 10.8L66.98 10.8L70.69 3.79L71.09 7.79L69.81 7.25L68.83 9.2L71.47 10.8L74.46 10.8L72.93 0.25L69.51 0.25L64.12 9.9L61.8 5.38L66.83 0.25L63.08 0.25L59.55 3.7L60.22 0.25L57.07 0.24L57.07 0.24ZM46.3 0.24L50.25 0.13C52.01 0.09 53.98 0.51 54.59 2.34C54.77 2.89 54.75 3.49 54.55 4.03C54.35 4.57 53.96 5.03 53.46 5.33C55.14 6.5 54.73 8.9 53.23 9.97C52 10.85 50.85 10.86 49.41 10.85L44.42 10.8L46.3 0.24ZM48.67 2.62L48.38 4.3L50.35 4.3C50.89 4.3 51.49 4.3 51.73 3.68C51.78 3.56 51.8 3.42 51.78 3.28C51.75 3.15 51.7 3.02 51.61 2.91C51.53 2.8 51.41 2.72 51.28 2.67C51.15 2.61 51.01 2.6 50.87 2.62L48.67 2.62ZM47.64 8.21L49.74 8.21C50.4 8.21 51.22 8.1 51.38 7.32C51.39 7.22 51.39 7.11 51.36 7C51.33 6.9 51.29 6.8 51.22 6.72C51.16 6.63 51.08 6.56 50.98 6.5C50.89 6.45 50.78 6.41 50.67 6.4C50.61 6.39 50.54 6.39 50.48 6.4L47.96 6.4L47.64 8.23L47.64 8.21ZM38.82 0.25L32.9 10.8L34.6 10.8C36.03 10.74 36.36 10.34 36.61 10.01C37.9 7.92 38.84 5.95 39.99 3.79L40.37 7.84L39.1 7.31L38.1 9.27L41.11 10.77L43.77 10.77L42.23 0.25L38.82 0.25ZM27.61 0.25L35.74 0.25L35.19 3.18L32.82 3.18L31.34 10.8L28.18 10.8L29.67 3.2L27.09 3.2L27.61 0.25Z" fill="#2E9BFC" fill-opacity="1.000000" fill-rule="nonzero"/>
	<path id="Vector" d="M14.84 10.79L17.52 10.79L13.64 5.07L18.59 0.27L14.18 0.27L4.36 9.92L6.16 0.25L3.73 0.25L0 2.63L0 5.33L2.24 4.32L1.93 5.21C1.59 7.07 1.24 8.94 0.9 10.79L8.11 10.79L11.1 7.68L12.32 9.5C12.6 9.89 12.98 10.22 13.42 10.45C13.86 10.67 14.34 10.79 14.84 10.8L14.84 10.79L14.84 10.79ZM9.02 4.2L6.42 0.25L9.39 0.25C9.81 0.27 10.22 0.38 10.59 0.56C10.97 0.74 11.3 1 11.57 1.31L11.75 1.55L9.02 4.2Z" fill="#103852" fill-opacity="1.000000" fill-rule="nonzero"/>
</svg>
