<svg width="12.000000" height="12.001831" viewBox="0 0 12 12.0018" fill="none" xmlns="http://www.w3.org/2000/svg" xmlns:xlink="http://www.w3.org/1999/xlink">
	<desc>
			Created with Pixso.
	</desc>
	<defs/>
	<path id="image 1720 (Traced)" d="M1.63 10.37C0 11.46 0 11.46 0 11.65C0 11.76 0.07 11.88 0.17 11.94L0.26 12L6 12L11.73 12L11.82 11.94C11.98 11.85 12.04 11.67 11.96 11.49C11.92 11.42 11.72 11.27 10.37 10.38L8.82 9.35L8.57 9.58C8.29 9.85 8.01 10.05 7.7 10.2C6.69 10.7 5.4 10.72 4.38 10.24C4.03 10.08 3.72 9.86 3.43 9.59C3.29 9.46 3.17 9.35 3.17 9.35C3.16 9.35 2.47 9.81 1.63 10.37Z" fill="#757B81" fill-opacity="1.000000" fill-rule="evenodd"/>
	<path id="image 1720 (Traced)" d="M5.82 0.04C5.77 0.07 5.72 0.12 5.69 0.18C5.64 0.27 5.64 0.31 5.64 3.99L5.64 7.71L4.72 8.32C4.21 8.66 3.79 8.94 3.78 8.94C3.77 8.95 4.11 9.26 4.26 9.37C4.46 9.51 4.83 9.68 5.08 9.76C5.99 10.02 7.01 9.87 7.72 9.37C7.9 9.25 8.22 8.96 8.21 8.94C8.2 8.94 7.78 8.66 7.27 8.32L6.35 7.71L6.35 5.84L6.35 3.98L9.03 3.98C11.67 3.98 11.72 3.98 11.81 3.93C11.87 3.9 11.92 3.85 11.95 3.79C12 3.7 12 3.66 12 1.99C12 0.32 12 0.27 11.95 0.18C11.92 0.12 11.87 0.07 11.81 0.04C11.72 -0.01 11.68 -0.01 8.81 0C5.97 0 5.91 0 5.82 0.04Z" fill="#757B81" fill-opacity="1.000000" fill-rule="evenodd"/>
</svg>
