<svg width="6.000000" height="8.000000" viewBox="0 0 6 8" fill="none" xmlns="http://www.w3.org/2000/svg" xmlns:xlink="http://www.w3.org/1999/xlink">
	<desc>
			Created with Pixso.
	</desc>
	<defs/>
	<path id="Ð" d="M0.25 8C0.17 8 0.11 7.97 0.06 7.93C0.02 7.87 0 7.81 0 7.73L0 0.27C0 0.19 0.02 0.12 0.06 0.08C0.11 0.02 0.17 0 0.25 0L0.82 0C0.9 0 0.96 0.02 1.01 0.08C1.06 0.12 1.08 0.19 1.08 0.27L1.08 3.42L4.91 3.42L4.91 0.27C4.91 0.19 4.93 0.12 4.97 0.08C5.02 0.02 5.09 0 5.16 0L5.73 0C5.81 0 5.87 0.02 5.92 0.08C5.97 0.12 6 0.19 6 0.27L6 7.73C6 7.81 5.97 7.87 5.92 7.93C5.87 7.97 5.81 8 5.73 8L5.16 8C5.09 8 5.02 7.97 4.97 7.93C4.93 7.87 4.91 7.81 4.91 7.73L4.91 4.45L1.08 4.45L1.08 7.73C1.08 7.81 1.06 7.87 1.01 7.93C0.96 7.97 0.9 8 0.82 8L0.25 8Z" fill="#FFFFFF" fill-opacity="1.000000" fill-rule="nonzero"/>
</svg>
