<svg width="70.158203" height="8.687988" viewBox="0 0 70.1582 8.68799" fill="none" xmlns="http://www.w3.org/2000/svg" xmlns:xlink="http://www.w3.org/1999/xlink">
	<desc>
			Created with Pixso.
	</desc>
	<defs/>
	<path id="Статистика LIVE" d="M0.98 8.36Q1.48 8.68 2.19 8.68Q3.04 8.68 3.59 8.28Q3.71 8.19 3.81 8.08Q4.4 7.47 4.48 6.33L3.95 6.33C3.85 7.57 3.26 8.19 2.19 8.19Q1.67 8.19 1.29 7.96Q1.11 7.85 0.97 7.69Q0.52 7.17 0.52 6.19L0.52 2.49Q0.52 1.51 0.95 1Q1.1 0.83 1.28 0.72Q1.65 0.49 2.17 0.49Q2.82 0.49 3.23 0.8Q3.81 1.25 3.89 2.35L4.42 2.35C4.37 1.59 4.15 1.01 3.76 0.61Q3.64 0.48 3.5 0.38Q2.97 1.81e-5 2.17 1.81e-5Q1.48 1.85e-5 0.98 0.31Q0.76 0.44 0.58 0.64Q-0.01 1.29 -0.01 2.49L-0.01 6.19Q-0.01 7.39 0.58 8.04Q0.76 8.23 0.98 8.36ZM12.95 2.66C12.63 2.31 12.19 2.13 11.62 2.13Q10.91 2.13 10.43 2.46Q10.34 2.52 10.26 2.6C9.93 2.91 9.74 3.32 9.71 3.84L10.24 3.84Q10.25 3.5 10.4 3.24Q10.49 3.08 10.63 2.96C10.88 2.74 11.21 2.62 11.61 2.62C12.03 2.62 12.35 2.76 12.58 3.02C12.81 3.28 12.93 3.64 12.93 4.12L12.93 4.92L11.63 4.92Q10.61 4.92 10.06 5.4C9.7 5.72 9.52 6.17 9.52 6.76Q9.52 7.49 9.86 7.96Q9.94 8.07 10.03 8.17Q10.16 8.29 10.3 8.38Q10.75 8.67 11.39 8.67Q12.07 8.67 12.51 8.35Q12.76 8.16 12.94 7.87L12.99 8.54L13.44 8.54L13.44 4.11C13.44 3.5 13.28 3.01 12.95 2.66ZM24.81 8.1C25.16 8.47 25.63 8.66 26.22 8.66C26.83 8.66 27.31 8.47 27.66 8.08C28.02 7.7 28.2 7.17 28.21 6.49L27.68 6.49Q27.67 7.3 27.29 7.74C27.03 8.02 26.67 8.16 26.22 8.16Q25.73 8.16 25.41 7.93Q25.29 7.85 25.19 7.74C24.94 7.46 24.81 7.06 24.81 6.54L24.81 4.26Q24.81 3.48 25.17 3.06C25.42 2.78 25.77 2.64 26.21 2.64C26.66 2.64 27.01 2.78 27.26 3.07Q27.65 3.49 27.66 4.29L28.19 4.29C28.18 3.61 28 3.08 27.65 2.71C27.29 2.32 26.81 2.13 26.21 2.13C25.62 2.13 25.16 2.32 24.81 2.7C24.47 3.07 24.3 3.59 24.3 4.26L24.3 6.54Q24.3 7.45 24.74 8.01Q24.78 8.05 24.81 8.1ZM46.65 2.44Q46.21 2.13 45.57 2.13Q44.86 2.13 44.38 2.46Q44.29 2.52 44.21 2.6C43.87 2.91 43.69 3.32 43.66 3.84L44.19 3.84Q44.2 3.5 44.35 3.24Q44.44 3.08 44.58 2.96C44.83 2.74 45.15 2.62 45.55 2.62C45.98 2.62 46.3 2.76 46.53 3.02C46.76 3.28 46.87 3.64 46.87 4.12L46.87 4.92L45.58 4.92C44.9 4.92 44.37 5.08 44.01 5.4C43.65 5.72 43.47 6.17 43.47 6.76C43.47 7.36 43.64 7.82 43.98 8.17C44.33 8.5 44.78 8.67 45.34 8.67C46.05 8.67 46.57 8.4 46.89 7.87L46.93 8.54L47.39 8.54L47.39 4.11C47.39 3.5 47.23 3.01 46.9 2.66Q46.78 2.53 46.65 2.44ZM8.8 2.74L8.8 2.26L5.13 2.26L5.13 2.74L6.7 2.74L6.7 8.54L7.21 8.54L7.21 2.74L8.8 2.74ZM18.02 2.74L18.02 2.26L14.35 2.26L14.35 2.74L15.92 2.74L15.92 8.54L16.44 8.54L16.44 2.74L18.02 2.74ZM19.05 2.26L19.05 8.54L19.57 8.54L21.74 4.3Q22.14 3.51 22.28 3.15L22.3 3.16C22.28 3.61 22.27 4.13 22.27 4.71L22.27 8.54L22.78 8.54L22.78 2.26L22.24 2.26L20.02 6.63C19.75 7.19 19.6 7.52 19.57 7.6L19.54 7.59C19.56 7.34 19.57 6.92 19.57 6.31L19.57 2.26L19.05 2.26ZM32.59 2.74L32.59 2.26L28.92 2.26L28.92 2.74L30.49 2.74L30.49 8.54L31 8.54L31 2.74L32.59 2.74ZM33.62 2.26L33.62 8.54L34.13 8.54L36.31 4.3Q36.7 3.51 36.85 3.15L36.87 3.16C36.85 3.61 36.83 4.13 36.83 4.71L36.83 8.54L37.35 8.54L37.35 2.26L36.81 2.26L34.59 6.63Q34.18 7.47 34.13 7.6L34.11 7.59C34.13 7.34 34.13 6.92 34.13 6.31L34.13 2.26L33.62 2.26ZM40.15 5.38L42.4 8.54L43.04 8.54L40.5 4.98L42.75 2.26L42.08 2.26L40.46 4.23C40.26 4.49 39.95 4.86 39.54 5.36L39.54 2.26L39.02 2.26L39.02 8.54L39.54 8.54L39.54 6.12L40.15 5.38ZM12.54 7.78C12.29 8.04 11.93 8.17 11.46 8.17Q10.9 8.17 10.54 7.9Q10.48 7.86 10.43 7.81Q10.36 7.74 10.31 7.67Q10.05 7.32 10.05 6.78Q10.05 6.22 10.32 5.88Q10.37 5.81 10.44 5.76Q10.85 5.4 11.62 5.4L12.93 5.4L12.93 6.72C12.93 7.16 12.8 7.52 12.54 7.78ZM46.49 7.78C46.23 8.04 45.87 8.17 45.41 8.17C44.98 8.17 44.63 8.05 44.38 7.81C44.12 7.56 43.99 7.22 43.99 6.78Q43.99 6.22 44.27 5.88Q44.32 5.81 44.39 5.76C44.66 5.52 45.05 5.4 45.57 5.4L46.87 5.4L46.87 6.72C46.87 7.16 46.75 7.52 46.49 7.78Z" fill="#757B81" fill-opacity="1.000000" fill-rule="evenodd"/>
	<path id="Статистика LIVE" d="M56.15 7.14L53.53 7.14L53.53 0.14L52.05 0.14L52.05 8.54L56.15 8.54L56.15 7.14ZM58.5 0.14L57.02 0.14L57.02 8.54L58.5 8.54L58.5 0.14ZM59.33 0.14L61.36 8.54L62.93 8.54L64.96 0.14L63.43 0.14L62.55 4.41C62.48 4.8 62.35 5.56 62.17 6.7L62.12 6.7Q61.93 5.31 61.75 4.41L60.87 0.14L59.33 0.14ZM70.15 7.15L67.28 7.15L67.28 4.95L69.8 4.95L69.8 3.61L67.28 3.61L67.28 1.53L70.03 1.53L70.03 0.14L65.81 0.14L65.81 8.54L70.15 8.54L70.15 7.15Z" fill="#E51D1D" fill-opacity="1.000000" fill-rule="evenodd"/>
</svg>
