<svg width="10.000000" height="13.000000" viewBox="0 0 10 13" fill="none" xmlns="http://www.w3.org/2000/svg" xmlns:xlink="http://www.w3.org/1999/xlink">
	<desc>
			Created with Pixso.
	</desc>
	<defs/>
	<path id="image 1832 (Traced) (Traced)" d="M4.57 0.01C3.03 0.18 1.75 1.23 1.28 2.69C1.14 3.12 1.13 3.22 1.12 4.09L1.11 4.87L0.66 4.87C0.15 4.88 0.09 4.89 0.05 4.99C0 5.12 -0.01 5.77 0 8.89C0 11.92 0.01 12.11 0.04 12.2C0.16 12.56 0.41 12.82 0.77 12.94L0.91 12.99L4.41 12.99C6.34 13 8.19 12.99 8.53 12.98C9.14 12.97 9.16 12.97 9.28 12.92C9.6 12.79 9.83 12.54 9.95 12.2C9.98 12.11 9.99 11.92 9.99 8.89C10 5.77 9.99 5.12 9.94 4.99C9.9 4.89 9.84 4.88 9.33 4.87L8.87 4.87L8.87 4.19C8.87 3.3 8.84 3.06 8.67 2.56C8.18 1.16 6.9 0.17 5.38 0.01C5.16 -0.01 4.78 -0.01 4.57 0.01ZM5.21 1.64C5.48 1.66 5.68 1.71 5.9 1.81C6.39 2.03 6.76 2.39 7 2.88C7.18 3.23 7.18 3.29 7.2 4.16L7.21 4.87L5 4.87L2.78 4.87L2.79 4.38C2.79 3.79 2.81 3.36 2.85 3.2C2.9 3.05 3.09 2.67 3.21 2.51C3.61 1.97 4.24 1.64 4.94 1.62C4.98 1.62 5.1 1.63 5.21 1.64ZM5.29 7.08C5.46 7.13 5.62 7.22 5.76 7.35C6 7.58 6.12 7.88 6.09 8.19C6.07 8.47 5.98 8.68 5.77 8.89L5.65 9.01L5.72 9.61C5.76 9.95 5.8 10.32 5.8 10.44C5.81 10.65 5.81 10.66 5.77 10.71C5.69 10.81 5.65 10.82 5 10.82C4.34 10.82 4.3 10.81 4.22 10.71C4.18 10.66 4.18 10.65 4.19 10.44C4.19 10.32 4.23 9.95 4.27 9.61L4.34 9.01L4.22 8.89C4.08 8.74 4 8.62 3.95 8.46C3.75 7.87 4.11 7.24 4.73 7.08C4.87 7.04 5.16 7.04 5.29 7.08Z" fill="#ACB1BE" fill-opacity="1.000000" fill-rule="evenodd"/>
</svg>
