<svg width="14.000000" height="14.000000" viewBox="0 0 14 14" fill="none" xmlns="http://www.w3.org/2000/svg" xmlns:xlink="http://www.w3.org/1999/xlink">
	<desc>
			Created with Pixso.
	</desc>
	<defs/>
	<path id="image 191 (Traced)" d="M13.41 0.02C13.34 0.04 13.23 0.15 13 0.41C11.85 1.68 10.42 2.59 8.77 3.09C8.6 3.14 8.33 3.22 8.16 3.25L7.87 3.31L7.87 6.12L7.87 8.92L8.16 8.99C9.78 9.34 11.39 10.22 12.58 11.4C12.76 11.58 13.02 11.85 13.14 11.98C13.37 12.23 13.45 12.27 13.66 12.23C13.79 12.21 13.96 12.04 13.99 11.91C13.99 11.86 14 9.22 13.99 6.05L13.99 0.27L13.91 0.17C13.78 0.01 13.62 -0.04 13.41 0.02ZM6.78 3.47C6.7 3.48 5.6 3.49 4.34 3.49L2.05 3.49L1.96 3.55C1.78 3.67 1.75 3.77 1.75 4.08L1.75 4.37L1.02 4.37C0.32 4.37 0.3 4.37 0.21 4.43C0.16 4.46 0.09 4.53 0.06 4.58L0 4.68L0 6.12L0 7.56L0.06 7.65C0.09 7.7 0.16 7.77 0.21 7.81C0.3 7.87 0.32 7.87 1.02 7.87L1.75 7.87L1.75 8.15C1.75 8.4 1.75 8.45 1.81 8.53C1.92 8.69 2.03 8.74 2.25 8.74L2.44 8.74L3.33 11.12C3.86 12.53 4.25 13.54 4.3 13.61C4.53 13.95 4.96 14.08 5.35 13.94C5.49 13.88 5.57 13.82 6.14 13.25C6.91 12.49 6.93 12.46 6.93 12.08L6.93 11.81L6.17 10.29C5.75 9.45 5.41 8.76 5.41 8.75C5.41 8.73 6.86 8.76 6.94 8.79L7 8.81L7 6.12C7 3.99 6.99 3.44 6.96 3.44C6.94 3.44 6.86 3.45 6.78 3.47Z" fill="#52638A" fill-opacity="1.000000" fill-rule="evenodd"/>
</svg>
