<svg width="14.000000" height="14.000732" viewBox="0 0 14 14.0007" fill="none" xmlns="http://www.w3.org/2000/svg" xmlns:xlink="http://www.w3.org/1999/xlink">
	<desc>
			Created with Pixso.
	</desc>
	<defs/>
	<path id="image 190 (Traced)" d="M8.92 1.3C7.97 1.49 7.21 2.24 6.96 3.25C6.91 3.46 6.9 3.54 6.9 3.9C6.9 4.21 6.91 4.35 6.94 4.49C7.18 5.54 7.91 6.3 8.9 6.52C9.14 6.57 9.58 6.57 9.84 6.52C10.7 6.34 11.41 5.69 11.71 4.8C11.84 4.43 11.88 3.86 11.82 3.47C11.69 2.66 11.21 1.96 10.53 1.57C10.32 1.45 10.21 1.4 9.96 1.33C9.72 1.26 9.18 1.25 8.92 1.3ZM5.63 2.33C4.56 2.42 3.6 3.02 3 3.98C2.76 4.35 2.6 4.75 2.49 5.24C2.43 5.49 2.43 5.53 2.42 6.71C2.4 7.66 2.39 7.96 2.36 8.13C2.22 8.93 1.89 9.57 1.32 10.15C1.02 10.46 0.95 10.59 0.93 10.88C0.91 11.3 1.12 11.65 1.5 11.81L1.64 11.87L5.88 11.87L10.13 11.87L10.27 11.81C10.77 11.61 11 11.05 10.78 10.55C10.72 10.44 10.65 10.34 10.45 10.13C10.12 9.79 9.92 9.51 9.76 9.17C9.55 8.74 9.43 8.29 9.39 7.8L9.37 7.63L9.17 7.62C8.27 7.54 7.53 7.18 6.92 6.52C6.41 5.98 6.12 5.4 5.96 4.64C5.93 4.47 5.92 4.33 5.92 3.91C5.92 3.43 5.92 3.36 5.98 3.11C6.01 2.96 6.08 2.72 6.14 2.58L6.23 2.33L6.1 2.33C6.02 2.33 5.94 2.33 5.92 2.32C5.89 2.32 5.76 2.32 5.63 2.33ZM4.08 12.49C4.16 12.89 4.47 13.37 4.83 13.64C5.29 13.99 5.92 14.09 6.47 13.9C7.07 13.68 7.57 13.12 7.71 12.47L7.72 12.4L5.89 12.4L4.07 12.4L4.08 12.49Z" fill="#52638A" fill-opacity="1.000000" fill-rule="evenodd"/>
	<ellipse id="Ellipse 639" cx="9.730469" cy="3.500000" rx="3.336667" ry="3.500000" fill="#B64C4C" fill-opacity="1.000000"/>
</svg>
