<svg width="141.675781" height="11.568604" viewBox="0 0 141.676 11.5686" fill="none" xmlns="http://www.w3.org/2000/svg" xmlns:xlink="http://www.w3.org/1999/xlink">
	<desc>
			Created with Pixso.
	</desc>
	<defs/>
	<path id="Результат LIVE матча" d="M0.18 9.07Q0.24 9.09 0.31 9.09L1.54 9.09Q1.65 9.09 1.72 9.04Q1.75 9.03 1.77 9.01Q1.81 8.97 1.83 8.92Q1.86 8.86 1.86 8.78L1.86 5.74L3.79 5.74Q4.81 5.74 5.56 5.43Q6.1 5.2 6.47 4.82Q6.61 4.66 6.73 4.49Q7.15 3.85 7.15 2.88Q7.15 1.92 6.73 1.28Q6.6 1.08 6.44 0.91Q6.08 0.53 5.56 0.32Q4.81 0 3.79 0L0.31 0Q0.24 0 0.19 0.02Q0.13 0.04 0.09 0.09Q0.06 0.12 0.04 0.15Q0 0.22 0 0.32L0 8.78Q0 8.85 0.02 8.9Q0.04 8.96 0.09 9.01Q0.13 9.05 0.18 9.07ZM3.73 4.3L1.83 4.3L1.83 1.44L3.73 1.44Q4.53 1.44 4.91 1.83Q4.99 1.91 5.05 2Q5.29 2.36 5.29 2.88Q5.29 3.48 4.99 3.83Q4.94 3.89 4.89 3.94Q4.48 4.3 3.73 4.3ZM9.61 8.66Q10.39 9.22 11.58 9.22Q12.31 9.22 12.87 9.04Q13.44 8.85 13.82 8.56Q14.19 8.28 14.39 7.98Q14.6 7.68 14.61 7.47Q14.62 7.41 14.59 7.36Q14.58 7.31 14.54 7.28Q14.51 7.25 14.49 7.24Q14.42 7.2 14.32 7.2L13.21 7.2Q13.06 7.2 12.99 7.23Q12.92 7.26 12.8 7.42Q12.74 7.51 12.58 7.65Q12.43 7.79 12.18 7.9Q11.93 8.02 11.57 8.02Q11.21 8.02 10.93 7.86Q10.87 7.83 10.81 7.78Q10.71 7.71 10.63 7.63Q10.44 7.44 10.32 7.16Q10.16 6.78 10.15 6.33L10.15 6.22L14.47 6.22Q14.56 6.22 14.63 6.18Q14.67 6.16 14.7 6.13Q14.75 6.08 14.77 6.03Q14.79 5.97 14.79 5.91L14.79 5.63Q14.79 4.62 14.43 3.85Q14.22 3.41 13.9 3.08Q13.65 2.83 13.35 2.64Q12.63 2.2 11.58 2.2Q10.63 2.2 9.93 2.59Q9.61 2.76 9.36 3Q9.05 3.29 8.83 3.68Q8.44 4.39 8.38 5.38Q8.37 5.49 8.37 5.7Q8.37 5.9 8.38 6.03Q8.44 7.46 9.19 8.28Q9.24 8.34 9.29 8.39Q9.44 8.54 9.61 8.66ZM17.63 9.03Q18.2 9.22 19.03 9.22Q19.94 9.22 20.61 8.98Q21.29 8.74 21.67 8.29Q21.77 8.17 21.85 8.03Q22.05 7.66 22.05 7.2Q22.03 6.7 21.85 6.28Q21.83 6.24 21.81 6.2Q21.78 6.13 21.74 6.06Q21.5 5.71 21 5.52Q21.47 5.3 21.65 4.95Q21.82 4.6 21.82 4.11Q21.82 4.02 21.81 3.92Q21.77 3.56 21.56 3.21Q21.29 2.78 20.68 2.49Q20.07 2.2 19.03 2.2Q18.26 2.2 17.73 2.38Q17.2 2.56 16.85 2.85Q16.51 3.15 16.35 3.51Q16.18 3.87 16.16 4.22Q16.16 4.31 16.2 4.37Q16.21 4.39 16.23 4.4Q16.25 4.43 16.28 4.44Q16.33 4.47 16.4 4.47L17.43 4.47Q17.57 4.47 17.64 4.42Q17.72 4.36 17.77 4.24Q17.89 3.85 18.15 3.66Q18.41 3.46 19.01 3.46Q19.46 3.46 19.7 3.59Q19.95 3.72 20.06 3.93Q20.13 4.05 20.16 4.18Q20.17 4.26 20.17 4.35Q20.17 4.65 20.02 4.82Q19.99 4.87 19.94 4.9Q19.71 5.08 19.24 5.08L18.57 5.08Q18.49 5.08 18.42 5.11Q18.39 5.13 18.36 5.16Q18.33 5.21 18.31 5.26Q18.29 5.31 18.29 5.36L18.29 5.91Q18.29 6.01 18.34 6.08Q18.35 6.1 18.36 6.12Q18.38 6.14 18.41 6.15Q18.48 6.2 18.57 6.2L19.29 6.2Q19.85 6.2 20.09 6.43Q20.13 6.46 20.16 6.5Q20.34 6.72 20.34 7.08Q20.34 7.33 20.23 7.52Q20.21 7.55 20.19 7.58L20.19 7.58Q20.03 7.78 19.74 7.88Q19.46 7.98 19.09 7.98Q18.56 7.98 18.2 7.82Q18.05 7.75 17.94 7.65Q17.79 7.5 17.72 7.28Q17.66 7.16 17.59 7.11Q17.52 7.05 17.39 7.05L16.33 7.05Q16.3 7.05 16.28 7.06Q16.21 7.07 16.16 7.12Q16.13 7.14 16.12 7.16Q16.08 7.22 16.09 7.3Q16.1 7.57 16.25 7.91Q16.4 8.24 16.73 8.54Q17.07 8.83 17.63 9.03ZM54.03 8.96Q54.57 9.22 55.25 9.22Q55.81 9.22 56.22 9.09Q56.63 8.95 56.91 8.73Q57.2 8.51 57.36 8.28L57.36 8.78Q57.36 8.86 57.39 8.92Q57.41 8.97 57.45 9.01Q57.47 9.03 57.5 9.05Q57.57 9.09 57.68 9.09L58.73 9.09Q58.81 9.09 58.87 9.07Q58.91 9.04 58.95 9.01Q59 8.96 59.02 8.9Q59.04 8.85 59.04 8.78L59.04 4.7Q59.04 4.19 58.89 3.74Q58.8 3.49 58.66 3.28Q58.55 3.1 58.39 2.95Q58.06 2.61 57.49 2.41Q56.92 2.2 56.1 2.2Q55.35 2.2 54.82 2.4Q54.29 2.59 53.95 2.87Q53.62 3.15 53.46 3.45Q53.3 3.75 53.28 3.96Q53.28 4.07 53.34 4.15Q53.35 4.16 53.35 4.17Q53.36 4.17 53.36 4.18Q53.44 4.24 53.57 4.24L54.6 4.24Q54.69 4.24 54.76 4.21Q54.84 4.16 54.9 4.08Q54.96 3.93 55.06 3.82Q55.17 3.68 55.33 3.58Q55.63 3.39 56.09 3.39Q56.76 3.39 57.03 3.69L57.03 3.69Q57.3 3.99 57.3 4.53L57.3 4.8L55.52 5.06Q54.32 5.25 53.58 5.79Q53.2 6.06 53.02 6.43Q52.84 6.79 52.84 7.23Q52.84 7.53 52.93 7.8Q53.01 8.03 53.16 8.24Q53.19 8.29 53.23 8.34Q53.54 8.72 54.03 8.96L54.03 8.96ZM114.05 8.96Q114.59 9.22 115.27 9.22Q115.83 9.22 116.24 9.09Q116.65 8.95 116.93 8.73Q117.22 8.51 117.39 8.28L117.39 8.78Q117.39 8.86 117.41 8.92Q117.43 8.97 117.47 9.01Q117.5 9.03 117.52 9.05Q117.6 9.09 117.7 9.09L118.75 9.09Q118.83 9.09 118.89 9.07Q118.93 9.04 118.97 9.01Q119.02 8.96 119.04 8.9Q119.07 8.85 119.07 8.78L119.07 4.7Q119.07 4.19 118.91 3.74Q118.82 3.49 118.68 3.28Q118.57 3.1 118.41 2.95Q118.08 2.61 117.51 2.41Q116.95 2.2 116.13 2.2Q115.37 2.2 114.84 2.4Q114.31 2.59 113.97 2.87Q113.64 3.15 113.48 3.45Q113.32 3.75 113.3 3.96Q113.3 4.07 113.36 4.15Q113.37 4.16 113.37 4.17Q113.38 4.17 113.38 4.18Q113.46 4.24 113.59 4.24L114.62 4.24Q114.71 4.24 114.78 4.21Q114.86 4.16 114.92 4.08Q114.98 3.93 115.08 3.82Q115.19 3.68 115.35 3.58Q115.65 3.39 116.11 3.39Q116.78 3.39 117.05 3.69L117.05 3.69Q117.32 3.99 117.32 4.53L117.32 4.8L115.54 5.06Q114.35 5.25 113.6 5.79Q113.23 6.06 113.04 6.43Q112.86 6.79 112.86 7.23Q112.86 7.53 112.95 7.8Q113.03 8.03 113.18 8.24Q113.21 8.29 113.25 8.34Q113.56 8.72 114.05 8.96L114.05 8.96ZM136.65 8.96Q137.2 9.22 137.88 9.22Q138.43 9.22 138.84 9.09Q139.25 8.95 139.54 8.73Q139.83 8.51 139.99 8.28L139.99 8.78Q139.99 8.86 140.02 8.92Q140.04 8.97 140.08 9.01Q140.1 9.03 140.13 9.05Q140.2 9.09 140.31 9.09L141.36 9.09Q141.43 9.09 141.49 9.07Q141.54 9.04 141.58 9.01Q141.63 8.96 141.65 8.9Q141.67 8.85 141.67 8.78L141.67 4.7Q141.67 4.19 141.52 3.74Q141.43 3.49 141.29 3.28Q141.17 3.1 141.02 2.95Q140.69 2.61 140.12 2.41Q139.55 2.2 138.73 2.2Q137.98 2.2 137.45 2.4Q136.91 2.59 136.58 2.87Q136.25 3.15 136.09 3.45Q135.92 3.75 135.91 3.96Q135.91 4.07 135.97 4.15Q135.97 4.16 135.98 4.17Q135.99 4.17 135.99 4.18Q136.06 4.24 136.2 4.24L137.23 4.24Q137.32 4.24 137.39 4.21Q137.47 4.16 137.52 4.08Q137.59 3.93 137.69 3.82Q137.8 3.68 137.96 3.58Q138.25 3.39 138.72 3.39Q139.38 3.39 139.66 3.69L139.66 3.69Q139.93 3.99 139.93 4.53L139.93 4.8L138.15 5.06Q136.95 5.25 136.21 5.79Q135.83 6.06 135.65 6.43Q135.47 6.79 135.47 7.23Q135.47 7.53 135.56 7.8Q135.64 8.03 135.79 8.24Q135.82 8.29 135.86 8.34Q136.17 8.72 136.65 8.96L136.65 8.96ZM26.51 6.86L28.29 2.58Q28.34 2.48 28.41 2.41Q28.49 2.33 28.65 2.33L29.64 2.33Q29.66 2.33 29.69 2.34Q29.76 2.35 29.83 2.41Q29.88 2.46 29.9 2.52Q29.91 2.56 29.91 2.59Q29.91 2.65 29.91 2.69Q29.9 2.72 29.86 2.8L27.39 8.7Q27.17 9.26 26.91 9.78Q26.66 10.29 26.35 10.7Q26.05 11.11 25.65 11.34Q25.24 11.56 24.7 11.56L24.13 11.56Q24.05 11.56 23.99 11.54Q23.94 11.52 23.9 11.48Q23.88 11.46 23.86 11.43Q23.81 11.36 23.81 11.25L23.81 10.51Q23.81 10.41 23.86 10.33Q23.88 10.3 23.9 10.28Q23.94 10.25 23.98 10.23Q24.05 10.2 24.13 10.2L24.53 10.2Q24.79 10.2 24.96 10.09Q25.13 9.99 25.27 9.75Q25.41 9.51 25.58 9.09L25.73 8.75L23.16 2.8Q23.11 2.67 23.11 2.62Q23.12 2.55 23.15 2.5Q23.17 2.45 23.2 2.42Q23.24 2.38 23.29 2.36Q23.34 2.33 23.4 2.33L24.44 2.33Q24.59 2.33 24.66 2.41Q24.66 2.41 24.66 2.41Q24.73 2.48 24.77 2.56Q24.77 2.57 24.78 2.58L26.51 6.86ZM30.5 9.05Q30.58 9.09 30.68 9.09Q31.42 9.09 31.93 8.85Q32.07 8.79 32.2 8.7Q32.53 8.47 32.76 8.09Q33.08 7.56 33.22 6.7Q33.36 5.83 33.36 4.58L33.36 3.71L35.27 3.71L35.27 8.78Q35.27 8.86 35.3 8.93Q35.32 8.97 35.35 9.01Q35.37 9.03 35.4 9.05Q35.47 9.09 35.58 9.09L36.66 9.09Q36.73 9.09 36.79 9.07Q36.84 9.04 36.88 9.01Q36.92 8.96 36.95 8.9Q36.97 8.85 36.97 8.78L36.97 2.65Q36.97 2.58 36.94 2.52Q36.92 2.47 36.88 2.43Q36.83 2.38 36.78 2.36Q36.73 2.33 36.66 2.33L32.04 2.33Q31.94 2.33 31.87 2.38Q31.84 2.4 31.81 2.43Q31.78 2.46 31.76 2.5Q31.73 2.56 31.73 2.65L31.73 4.4Q31.73 5.53 31.62 6.24Q31.51 6.95 31.27 7.29Q31.14 7.48 30.95 7.57Q30.82 7.64 30.65 7.65Q30.49 7.67 30.42 7.75Q30.35 7.83 30.35 7.96L30.35 8.77Q30.35 8.86 30.39 8.94Q30.41 8.97 30.44 9.01Q30.47 9.03 30.5 9.05ZM39.17 9.07Q39.23 9.09 39.3 9.09L41.93 9.09Q43.26 9.09 43.98 8.52Q44.14 8.39 44.27 8.23Q44.69 7.69 44.69 6.82Q44.69 5.97 44.29 5.41Q44.17 5.24 44.03 5.1Q43.37 4.48 42.04 4.48L40.7 4.48L40.7 2.65Q40.7 2.58 40.67 2.52Q40.65 2.47 40.61 2.43Q40.57 2.38 40.52 2.36Q40.46 2.33 40.39 2.33L39.3 2.33Q39.23 2.33 39.18 2.36Q39.12 2.38 39.08 2.43Q39.03 2.47 39.01 2.52Q38.98 2.58 38.98 2.65L38.98 8.78Q38.98 8.85 39.01 8.9Q39.03 8.96 39.08 9.01Q39.12 9.05 39.17 9.07ZM48.02 9.05Q48.1 9.09 48.2 9.09L49.25 9.09Q49.32 9.09 49.38 9.07Q49.43 9.05 49.48 9.01Q49.52 8.96 49.54 8.9Q49.57 8.85 49.57 8.78L49.57 3.71L51.67 3.71Q51.77 3.71 51.85 3.67Q51.88 3.65 51.91 3.62Q51.94 3.59 51.96 3.55Q52 3.48 52 3.39L52 2.65Q52 2.58 51.97 2.52Q51.95 2.47 51.91 2.43Q51.87 2.39 51.84 2.37Q51.77 2.33 51.67 2.33L45.77 2.33Q45.67 2.33 45.6 2.38Q45.57 2.4 45.54 2.43Q45.51 2.46 45.49 2.51Q45.46 2.57 45.46 2.65L45.46 3.39Q45.46 3.49 45.5 3.57Q45.52 3.6 45.54 3.62Q45.57 3.65 45.59 3.66Q45.67 3.71 45.77 3.71L47.89 3.71L47.89 8.78Q47.89 8.86 47.92 8.92Q47.94 8.97 47.97 9.01Q48 9.03 48.02 9.05ZM62.86 9.05Q62.93 9.09 63.04 9.09L64.09 9.09Q64.16 9.09 64.21 9.07Q64.26 9.05 64.31 9.01Q64.35 8.96 64.38 8.9Q64.4 8.85 64.4 8.78L64.4 3.71L66.5 3.71Q66.6 3.71 66.68 3.67Q66.71 3.65 66.74 3.62Q66.77 3.59 66.79 3.55Q66.83 3.48 66.83 3.39L66.83 2.65Q66.83 2.58 66.81 2.52Q66.78 2.47 66.74 2.43Q66.71 2.39 66.67 2.37Q66.6 2.33 66.5 2.33L60.6 2.33Q60.51 2.33 60.43 2.38Q60.4 2.4 60.38 2.43Q60.34 2.46 60.32 2.51Q60.29 2.57 60.29 2.65L60.29 3.39Q60.29 3.49 60.34 3.57Q60.35 3.6 60.38 3.62Q60.4 3.65 60.43 3.66Q60.5 3.71 60.6 3.71L62.72 3.71L62.72 8.78Q62.72 8.86 62.75 8.92Q62.77 8.97 62.81 9.01Q62.83 9.03 62.86 9.05ZM104.02 9.05Q104.09 9.09 104.19 9.09L105.31 9.09Q105.39 9.09 105.45 9.06Q105.48 9.05 105.51 9.02Q105.54 8.98 105.56 8.94Q105.58 8.89 105.58 8.82L105.58 5.23L106.97 7.74Q107.04 7.87 107.13 7.96Q107.15 7.98 107.16 7.99Q107.25 8.05 107.38 8.05L107.81 8.05Q107.95 8.05 108.04 7.98Q108.05 7.97 108.07 7.96Q108.13 7.9 108.17 7.82Q108.2 7.78 108.22 7.74L109.61 5.18L109.61 8.82Q109.61 8.9 109.64 8.96Q109.66 8.99 109.69 9.02Q109.7 9.03 109.72 9.05Q109.79 9.09 109.89 9.09L111.01 9.09Q111.11 9.09 111.18 9.04Q111.2 9.03 111.21 9.02Q111.25 8.98 111.26 8.94Q111.29 8.89 111.29 8.82L111.29 2.58Q111.29 2.53 111.27 2.49Q111.25 2.44 111.21 2.41Q111.19 2.38 111.16 2.37Q111.1 2.33 111.02 2.33L109.94 2.33Q109.85 2.33 109.78 2.37Q109.67 2.42 109.6 2.56L107.6 6.2L105.6 2.56Q105.53 2.42 105.41 2.37Q105.34 2.33 105.26 2.33L104.17 2.33Q104.16 2.33 104.16 2.33Q104.07 2.34 103.99 2.41Q103.94 2.45 103.92 2.5Q103.91 2.54 103.91 2.58L103.91 8.82Q103.91 8.89 103.93 8.95Q103.95 8.99 103.98 9.02Q104 9.03 104.02 9.05ZM122.88 9.05Q122.95 9.09 123.06 9.09L124.11 9.09Q124.18 9.09 124.23 9.07Q124.29 9.05 124.33 9.01Q124.38 8.96 124.4 8.9Q124.42 8.85 124.42 8.78L124.42 3.71L126.53 3.71Q126.62 3.71 126.7 3.67Q126.73 3.65 126.76 3.62Q126.79 3.59 126.81 3.55Q126.85 3.48 126.85 3.39L126.85 2.65Q126.85 2.58 126.83 2.52Q126.8 2.47 126.76 2.43Q126.73 2.39 126.69 2.37Q126.62 2.33 126.53 2.33L120.63 2.33Q120.53 2.33 120.45 2.38Q120.42 2.4 120.4 2.43Q120.36 2.46 120.34 2.51Q120.31 2.57 120.31 2.65L120.31 3.39Q120.31 3.49 120.36 3.57Q120.37 3.6 120.4 3.62Q120.42 3.65 120.45 3.66Q120.52 3.71 120.63 3.71L122.74 3.71L122.74 8.78Q122.74 8.86 122.77 8.92Q122.79 8.97 122.83 9.01Q122.85 9.03 122.88 9.05ZM132.29 9.07Q132.35 9.09 132.42 9.09L133.59 9.09Q133.66 9.09 133.72 9.07Q133.77 9.04 133.81 9.01Q133.85 8.96 133.88 8.9Q133.9 8.85 133.9 8.78L133.9 2.65Q133.9 2.58 133.87 2.52Q133.85 2.47 133.81 2.43Q133.76 2.38 133.71 2.36Q133.66 2.33 133.59 2.33L132.42 2.33Q132.35 2.33 132.3 2.36Q132.24 2.38 132.19 2.43Q132.15 2.47 132.13 2.51Q132.11 2.57 132.11 2.65L132.11 4.86Q132.11 5.07 132 5.22Q131.91 5.37 131.71 5.45Q131.32 5.62 130.69 5.62Q130.06 5.62 129.78 5.4Q129.76 5.38 129.74 5.36Q129.5 5.13 129.5 4.65L129.5 2.65Q129.5 2.58 129.48 2.52Q129.45 2.47 129.41 2.43Q129.37 2.38 129.32 2.36Q129.26 2.33 129.19 2.33L128.07 2.33Q128.01 2.33 127.95 2.36Q127.9 2.38 127.85 2.43Q127.81 2.47 127.79 2.51Q127.76 2.57 127.76 2.65L127.76 4.74Q127.76 5.97 128.38 6.54Q128.39 6.56 128.4 6.57Q129.05 7.13 130.23 7.13Q130.83 7.13 131.3 7Q131.78 6.86 132.11 6.57L132.11 8.78Q132.11 8.85 132.13 8.91Q132.15 8.96 132.19 9.01Q132.24 9.05 132.29 9.07ZM13.02 5.13L10.15 5.13L10.15 5.09Q10.15 4.58 10.31 4.2Q10.43 3.92 10.63 3.73Q10.71 3.66 10.8 3.6Q10.82 3.59 10.83 3.58Q11.15 3.39 11.58 3.39Q12 3.39 12.31 3.57Q12.34 3.59 12.36 3.6Q12.45 3.66 12.53 3.74Q12.73 3.92 12.85 4.2Q13.02 4.58 13.02 5.09L13.02 5.13ZM41.9 7.86L40.67 7.86L40.67 5.71L41.9 5.71Q42.56 5.71 42.85 5.99Q42.86 6 42.88 6.01Q43.14 6.28 43.14 6.82Q43.14 7.35 42.88 7.59Q42.86 7.61 42.84 7.62Q42.53 7.86 41.9 7.86ZM56.4 7.85Q56.07 7.99 55.69 7.99Q55.47 7.99 55.26 7.94Q55.19 7.92 55.12 7.89Q54.89 7.81 54.73 7.66Q54.7 7.63 54.67 7.59Q54.6 7.52 54.56 7.43Q54.49 7.28 54.49 7.1Q54.49 7 54.52 6.91Q54.6 6.66 54.87 6.47Q55.25 6.21 56.01 6.09L57.31 5.88L57.31 6.16Q57.31 6.78 57.1 7.19Q56.94 7.5 56.69 7.69Q56.6 7.75 56.51 7.8Q56.46 7.83 56.4 7.85ZM116.42 7.85Q116.09 7.99 115.71 7.99Q115.49 7.99 115.29 7.94Q115.21 7.92 115.14 7.89Q114.91 7.81 114.75 7.66Q114.72 7.63 114.69 7.59Q114.62 7.52 114.58 7.43Q114.51 7.28 114.51 7.1Q114.51 7 114.54 6.91Q114.62 6.66 114.89 6.47Q115.27 6.21 116.03 6.09L117.34 5.88L117.34 6.16Q117.34 6.78 117.12 7.19Q116.96 7.5 116.71 7.69Q116.63 7.75 116.54 7.8Q116.48 7.83 116.42 7.85ZM139.03 7.85Q138.7 7.99 138.32 7.99Q138.1 7.99 137.89 7.94Q137.82 7.92 137.75 7.89Q137.52 7.81 137.36 7.66Q137.33 7.63 137.3 7.59Q137.23 7.52 137.19 7.43Q137.12 7.28 137.12 7.1Q137.12 7 137.15 6.91Q137.22 6.66 137.5 6.47Q137.88 6.21 138.64 6.09L139.94 5.88L139.94 6.16Q139.94 6.78 139.73 7.19Q139.57 7.5 139.31 7.69Q139.23 7.75 139.14 7.8Q139.09 7.83 139.03 7.85Z" fill="#252E35" fill-opacity="1.000000" fill-rule="evenodd"/>
	<path id="Результат LIVE матча" d="M71.7 9.07Q71.75 9.09 71.82 9.09L77.46 9.09Q77.57 9.09 77.65 9.04Q77.68 9.03 77.7 9.01Q77.74 8.96 77.77 8.9Q77.79 8.85 77.79 8.78L77.79 7.87Q77.79 7.78 77.75 7.7Q77.73 7.67 77.7 7.64Q77.67 7.61 77.64 7.6Q77.57 7.55 77.46 7.55L73.34 7.55L73.34 0.31Q73.34 0.24 73.32 0.18Q73.29 0.13 73.25 0.09Q73.21 0.04 73.16 0.02Q73.1 0 73.03 0L71.82 0Q71.76 0 71.7 0.02Q71.65 0.04 71.6 0.09Q71.56 0.13 71.53 0.18Q71.51 0.24 71.51 0.31L71.51 8.78Q71.51 8.85 71.53 8.9Q71.55 8.96 71.6 9.01Q71.64 9.05 71.7 9.07ZM79.5 9.07Q79.55 9.09 79.62 9.09L80.84 9.09Q80.95 9.09 81.02 9.04Q81.05 9.03 81.07 9.01Q81.11 8.97 81.13 8.92Q81.16 8.86 81.16 8.78L81.16 0.31Q81.16 0.23 81.13 0.17Q81.11 0.12 81.07 0.09Q81.05 0.06 81.02 0.04Q80.95 0 80.84 0L79.62 0Q79.56 0 79.5 0.02Q79.45 0.04 79.4 0.09Q79.36 0.13 79.33 0.18Q79.31 0.24 79.31 0.31L79.31 8.78Q79.31 8.85 79.33 8.9Q79.35 8.96 79.4 9.01Q79.44 9.05 79.5 9.07ZM85.79 9Q85.91 9.09 86.11 9.09L87.54 9.09Q87.74 9.09 87.86 9Q87.86 8.99 87.86 8.99Q87.91 8.95 87.94 8.91Q88 8.83 88.03 8.73L90.82 0.39Q90.84 0.32 90.84 0.27Q90.84 0.21 90.82 0.15Q90.8 0.11 90.76 0.07Q90.7 0.02 90.64 0Q90.6 0 90.57 0L89.43 0Q89.26 0 89.16 0.08Q89.15 0.09 89.14 0.09Q89.05 0.19 89.02 0.28L86.82 6.97L84.63 0.28Q84.6 0.19 84.5 0.09Q84.49 0.08 84.48 0.08Q84.39 0 84.22 0L83.08 0Q83.01 0 82.96 0.02Q82.92 0.04 82.88 0.07Q82.86 0.1 82.84 0.13Q82.81 0.19 82.81 0.27Q82.81 0.32 82.83 0.39L85.61 8.73Q85.65 8.83 85.72 8.92Q85.75 8.96 85.79 8.99Q85.79 8.99 85.79 9ZM92.66 9.07Q92.72 9.09 92.79 9.09L98.62 9.09Q98.72 9.09 98.79 9.05Q98.82 9.03 98.85 9.01Q98.89 8.96 98.92 8.9Q98.94 8.85 98.94 8.78L98.94 7.92Q98.94 7.83 98.9 7.75Q98.88 7.72 98.85 7.69Q98.82 7.66 98.78 7.64Q98.71 7.6 98.62 7.6L94.23 7.6L94.23 5.22L98.23 5.22Q98.34 5.22 98.42 5.17Q98.44 5.15 98.46 5.14Q98.49 5.11 98.5 5.08Q98.55 5.01 98.55 4.91L98.55 4.1Q98.55 4 98.5 3.93Q98.48 3.9 98.46 3.88Q98.44 3.86 98.41 3.84Q98.33 3.79 98.23 3.79L94.23 3.79L94.23 1.49L98.51 1.49Q98.61 1.49 98.69 1.44Q98.72 1.43 98.74 1.4Q98.79 1.35 98.81 1.3Q98.83 1.24 98.83 1.18L98.83 0.32Q98.83 0.22 98.79 0.15Q98.77 0.12 98.74 0.09Q98.71 0.06 98.68 0.04Q98.61 0 98.51 0L92.79 0Q92.73 0 92.67 0.02Q92.62 0.04 92.57 0.09Q92.54 0.12 92.52 0.15Q92.48 0.22 92.48 0.32L92.48 8.78Q92.48 8.85 92.5 8.9Q92.52 8.96 92.57 9.01Q92.61 9.05 92.66 9.07Z" fill="#E51D1D" fill-opacity="1.000000" fill-rule="evenodd"/>
</svg>
