<svg width="12.000000" height="12.000000" viewBox="0 0 12 12" fill="none" xmlns="http://www.w3.org/2000/svg" xmlns:xlink="http://www.w3.org/1999/xlink">
	<desc>
			Created with Pixso.
	</desc>
	<defs/>
	<path id="image 202 (Traced)" d="M5.74 0.05C5.66 0.08 5.57 0.15 5.48 0.24C5.34 0.37 5.31 0.43 4.6 1.94C4.19 2.8 3.86 3.5 3.85 3.5C3.81 3.5 0.75 3.97 0.66 3.99C0.4 4.04 0.16 4.22 0.05 4.43C0 4.52 0 4.58 0 4.75C0 4.92 0 4.97 0.06 5.1C0.14 5.26 0.36 5.5 1.76 6.93L2.55 7.72L2.27 9.39C2.03 10.84 2 11.08 2.01 11.25C2.03 11.67 2.28 11.96 2.65 11.99C2.94 12.01 2.93 12.02 5.02 10.87L6 10.33L6.15 10.41C6.44 10.58 8.53 11.72 8.73 11.83C8.99 11.96 9.15 12.01 9.34 11.99C9.71 11.96 9.96 11.67 9.98 11.25C9.99 11.08 9.96 10.84 9.72 9.39L9.44 7.72L10.19 6.96C10.6 6.55 11.15 5.99 11.4 5.73C11.95 5.15 12 5.08 12 4.75C12 4.58 11.99 4.52 11.94 4.43C11.83 4.22 11.6 4.05 11.35 3.99C11.26 3.97 8.19 3.5 8.14 3.5C8.14 3.5 7.8 2.79 7.39 1.94C6.68 0.43 6.65 0.37 6.51 0.24C6.28 0 6.01 -0.06 5.74 0.05ZM6.82 2.42C7.45 3.74 7.62 4.08 7.68 4.13C7.76 4.19 7.62 4.17 10.21 4.56C11.24 4.72 11.26 4.72 11.27 4.77C11.28 4.8 10.81 5.3 10.01 6.11C8.97 7.17 8.74 7.41 8.72 7.49C8.7 7.56 8.74 7.86 8.98 9.28C9.3 11.24 9.29 11.2 9.27 11.23C9.26 11.25 9.24 11.25 9.19 11.23C9.15 11.22 8.44 10.84 7.62 10.38C6.18 9.59 6.12 9.56 6 9.56C5.87 9.56 5.81 9.59 4.37 10.38C3.55 10.83 2.85 11.22 2.81 11.23C2.76 11.25 2.73 11.25 2.72 11.23C2.7 11.2 2.69 11.25 3.01 9.28C3.29 7.61 3.29 7.57 3.26 7.47C3.23 7.39 2.98 7.12 1.97 6.09C1.17 5.29 0.71 4.8 0.72 4.77C0.72 4.75 0.76 4.73 0.81 4.72C0.85 4.7 1.64 4.58 2.56 4.44C4.05 4.22 4.24 4.18 4.3 4.13C4.37 4.08 4.51 3.81 5.15 2.45C5.58 1.55 5.94 0.8 5.95 0.78C5.97 0.77 5.99 0.75 6 0.76C6.02 0.76 6.38 1.51 6.82 2.42Z" fill="#FFFFFF" fill-opacity="1.000000" fill-rule="evenodd"/>
</svg>
