<svg width="10.000000" height="12.000000" viewBox="0 0 10 12" fill="none" xmlns="http://www.w3.org/2000/svg" xmlns:xlink="http://www.w3.org/1999/xlink">
	<desc>
			Created with Pixso.
	</desc>
	<defs/>
	<path id="image 1719 (Traced)" d="M3.95 0.02C3.61 0.11 3.35 0.35 3.26 0.68C3.14 1.08 3.35 1.56 3.74 1.75C3.9 1.83 4.09 1.87 4.37 1.87L4.63 1.87L4.63 2.1L4.63 2.33L4.47 2.34C3.61 2.43 2.67 2.79 1.96 3.31L1.85 3.39L1.34 2.9C1.06 2.63 0.81 2.4 0.78 2.38C0.64 2.31 0.42 2.38 0.33 2.53C0.28 2.62 0.27 2.78 0.32 2.87C0.34 2.9 0.57 3.14 0.84 3.4L1.33 3.87L1.21 4C0.22 5.12 -0.2 6.6 0.08 8.05C0.45 9.99 2.07 11.56 4.08 11.91C5.71 12.2 7.36 11.71 8.52 10.58C10.04 9.1 10.42 6.92 9.49 5.05C9.34 4.74 9.04 4.3 8.81 4.03L8.66 3.87L9.15 3.4C9.42 3.14 9.65 2.9 9.67 2.87C9.72 2.78 9.71 2.62 9.66 2.53C9.57 2.38 9.35 2.31 9.21 2.38C9.18 2.4 8.93 2.63 8.65 2.9L8.14 3.39L8.03 3.31C7.32 2.79 6.38 2.43 5.52 2.34L5.36 2.33L5.36 2.1L5.36 1.87L5.62 1.87C6.16 1.87 6.49 1.69 6.68 1.31C6.75 1.17 6.75 1.13 6.75 0.94C6.75 0.61 6.64 0.37 6.37 0.18C6.13 0 6.14 0 5.04 0C4.31 -0.01 4.03 0 3.95 0.02ZM5.91 0.73C6.05 0.79 6.08 0.96 5.97 1.07L5.9 1.15L5 1.15L4.09 1.15L4.02 1.07C3.91 0.96 3.94 0.8 4.08 0.73C4.16 0.68 5.82 0.68 5.91 0.73ZM5.59 3.06C6.5 3.19 7.34 3.6 8 4.23C8.64 4.85 9.05 5.6 9.21 6.47C9.26 6.77 9.27 7.46 9.22 7.77C9.12 8.42 8.83 9.1 8.42 9.62C8.21 9.9 7.75 10.33 7.47 10.53C7.2 10.72 6.65 10.99 6.34 11.08C5.47 11.36 4.52 11.36 3.65 11.08C3.34 10.99 2.79 10.72 2.52 10.53C2.22 10.32 1.72 9.84 1.52 9.56C0.6 8.3 0.47 6.72 1.16 5.35C1.88 3.9 3.46 2.98 5.09 3.03C5.26 3.03 5.48 3.05 5.59 3.06ZM4.7 3.62C3.85 3.71 3.21 3.97 2.61 4.46C2.01 4.95 1.58 5.66 1.4 6.46C1.32 6.79 1.32 7.52 1.4 7.86C1.76 9.48 3.14 10.62 4.83 10.7C6.36 10.78 7.81 9.89 8.39 8.5C8.59 8.01 8.68 7.54 8.65 7C8.58 5.36 7.35 3.98 5.68 3.67C5.44 3.63 4.89 3.59 4.7 3.62ZM5.55 4.37C6.12 4.47 6.64 4.74 7.06 5.15C7.63 5.7 7.93 6.39 7.93 7.16C7.93 8.56 6.87 9.76 5.43 9.97C3.84 10.2 2.35 9.15 2.09 7.6C1.89 6.39 2.55 5.16 3.7 4.6C3.97 4.47 4.39 4.36 4.74 4.32C4.91 4.3 5.35 4.33 5.55 4.37ZM4.86 5.16C4.77 5.19 4.66 5.32 4.64 5.39C4.63 5.42 4.63 5.86 4.64 6.36C4.64 7.25 4.65 7.28 4.69 7.35C4.72 7.38 4.77 7.43 4.81 7.46C4.87 7.51 4.91 7.51 5.6 7.51C6.3 7.51 6.33 7.51 6.39 7.46C6.62 7.29 6.63 7.02 6.4 6.87C6.33 6.82 6.3 6.82 5.84 6.82L5.36 6.82L5.35 6.09C5.35 5.4 5.34 5.36 5.3 5.3C5.18 5.15 5.01 5.09 4.86 5.16Z" fill="#E51D1D" fill-opacity="1.000000" fill-rule="evenodd"/>
</svg>
