<svg width="14.000000" height="14.000000" viewBox="0 0 14 14" fill="none" xmlns="http://www.w3.org/2000/svg" xmlns:xlink="http://www.w3.org/1999/xlink">
	<desc>
			Created with Pixso.
	</desc>
	<defs/>
	<circle id="Ellipse 2346" cx="7.000000" cy="7.000000" r="7.000000" fill="#46BF6A" fill-opacity="1.000000"/>
	<path id="Union" d="M7.30859 6.69531L7.30859 3.30762C7.30859 3.1377 7.16992 3 7 3C6.83008 3 6.69336 3.1377 6.69336 3.30762L6.69336 6.69531L3.30859 6.69531C3.13867 6.69531 3 6.83301 3 7.00293C3 7.17285 3.13867 7.31055 3.30859 7.31055L6.69336 7.31055L6.69336 10.6924C6.69336 10.8623 6.83008 11 7 11C7.16992 11 7.30859 10.8623 7.30859 10.6924L7.30859 7.31055L10.6914 7.31055C10.8613 7.31055 11 7.17285 11 7.00293C11 6.83301 10.8613 6.69531 10.6914 6.69531L7.30859 6.69531Z" clip-rule="evenodd" fill="#FFFFFF" fill-opacity="1.000000" fill-rule="evenodd"/>
</svg>
