<svg width="10.287109" height="12.000000" viewBox="0 0 10.2871 12" fill="none" xmlns="http://www.w3.org/2000/svg" xmlns:xlink="http://www.w3.org/1999/xlink">
	<desc>
			Created with Pixso.
	</desc>
	<defs/>
	<path id="image 1933 (Traced)" d="M4.82 0C4.08 0.1 3.47 0.4 2.95 0.93C2.58 1.32 2.36 1.7 2.2 2.19C2.09 2.55 2.06 2.74 2.06 3.17C2.07 3.58 2.1 3.79 2.21 4.15C2.36 4.62 2.59 5 2.95 5.37C3.41 5.85 3.92 6.13 4.57 6.27C4.83 6.32 5.44 6.32 5.72 6.27C6.34 6.14 6.85 5.86 7.31 5.38C7.68 5 7.91 4.63 8.06 4.15C8.18 3.78 8.21 3.58 8.21 3.15C8.21 2.87 8.2 2.71 8.17 2.57C8.08 2.13 7.92 1.73 7.69 1.37C7.54 1.15 7.1 0.69 6.89 0.55C6.52 0.3 6.12 0.12 5.73 0.05C5.54 0.01 4.98 -0.02 4.82 0ZM3.91 7.06C2.63 7.22 1.48 7.96 0.73 9.11C0.3 9.78 0.05 10.58 0 11.42C-0.01 11.68 -0.01 11.71 0.04 11.8C0.07 11.87 0.12 11.92 0.18 11.95C0.27 11.99 0.3 12 5.14 12C9.98 12 10.01 11.99 10.1 11.95C10.16 11.92 10.21 11.87 10.24 11.8C10.28 11.71 10.29 11.68 10.27 11.42C10.21 10.27 9.78 9.25 9 8.42C8.26 7.64 7.31 7.16 6.26 7.05C5.91 7.01 4.23 7.02 3.91 7.06Z" fill="#52638A" fill-opacity="1.000000" fill-rule="evenodd"/>
</svg>
