<svg width="10.000000" height="10.000000" viewBox="0 0 10 10" fill="none" xmlns="http://www.w3.org/2000/svg" xmlns:xlink="http://www.w3.org/1999/xlink">
	<desc>
			Created with Pixso.
	</desc>
	<defs/>
	<path id="image 1767 (Traced)" d="M3.37 0.02C2.52 0.18 1.89 0.86 1.79 1.73C1.76 1.97 1.79 2.08 1.9 2.19C2.07 2.36 2.36 2.34 2.49 2.14C2.53 2.08 2.55 2.02 2.57 1.85C2.58 1.74 2.61 1.6 2.62 1.56C2.75 1.21 3.02 0.94 3.36 0.83C3.57 0.76 3.85 0.76 4.06 0.83C4.66 1.02 4.99 1.67 4.8 2.27C4.7 2.55 4.51 2.79 4.24 2.93C3.98 3.06 4.06 3.06 2.11 3.06C0.95 3.06 0.33 3.06 0.28 3.08C0.24 3.09 0.17 3.13 0.14 3.16C-0.08 3.35 -0.04 3.67 0.21 3.8C0.28 3.84 0.34 3.84 2.17 3.84L4.05 3.83L4.23 3.78C4.57 3.67 4.83 3.52 5.06 3.29C5.32 3.04 5.49 2.74 5.58 2.38C5.65 2.12 5.65 1.74 5.59 1.49C5.5 1.11 5.31 0.79 5.04 0.53C4.79 0.29 4.5 0.12 4.18 0.05C3.96 -0.01 3.58 -0.02 3.37 0.02ZM7.75 1.55C7.37 1.62 7.02 1.8 6.74 2.08C6.39 2.41 6.19 2.85 6.16 3.31C6.15 3.57 6.16 3.63 6.28 3.74C6.41 3.86 6.61 3.87 6.76 3.77C6.87 3.7 6.92 3.6 6.94 3.38C6.97 3.08 7.07 2.84 7.27 2.65C7.49 2.43 7.72 2.33 8.02 2.32C8.37 2.3 8.63 2.4 8.88 2.65C9.09 2.86 9.2 3.09 9.22 3.38C9.26 3.9 8.92 4.38 8.4 4.56C8.3 4.59 8.14 4.59 5.06 4.6L1.82 4.61L1.75 4.66C1.71 4.68 1.65 4.74 1.62 4.78C1.58 4.85 1.57 4.89 1.57 4.99C1.57 5.15 1.62 5.24 1.74 5.32L1.82 5.37L5.09 5.37L8.35 5.37L8.53 5.33C9.23 5.15 9.76 4.63 9.94 3.94C9.99 3.78 10 3.71 10 3.45C10 3.12 9.97 2.98 9.85 2.7C9.73 2.39 9.44 2.05 9.17 1.87C9 1.75 8.75 1.64 8.57 1.59C8.4 1.54 7.92 1.52 7.75 1.55ZM0.22 6.18C-0.04 6.32 -0.08 6.63 0.14 6.83C0.17 6.86 0.24 6.9 0.28 6.91C0.33 6.92 1.37 6.93 3.52 6.93C5.71 6.93 6.71 6.94 6.78 6.95C6.96 6.99 7.2 7.12 7.33 7.25C7.56 7.47 7.66 7.7 7.67 8.01C7.69 8.36 7.59 8.62 7.35 8.87C7.14 9.08 6.9 9.19 6.6 9.21C6.4 9.22 6.17 9.17 5.98 9.07C5.82 8.98 5.62 8.77 5.53 8.62C5.46 8.47 5.39 8.23 5.39 8.09C5.39 7.97 5.34 7.86 5.25 7.78C5.18 7.72 5.07 7.67 5 7.67C4.92 7.67 4.82 7.72 4.75 7.78C4.63 7.88 4.6 7.99 4.62 8.2C4.64 8.54 4.75 8.85 4.93 9.13C5.61 10.15 7.04 10.29 7.9 9.43C8.07 9.26 8.18 9.1 8.29 8.87C8.42 8.58 8.45 8.45 8.45 8.06C8.45 7.75 8.45 7.71 8.4 7.55C8.29 7.19 8.12 6.91 7.85 6.67C7.62 6.44 7.4 6.32 7.05 6.21L6.89 6.16L3.58 6.15C0.59 6.15 0.27 6.15 0.22 6.18Z" fill="#FFFFFF" fill-opacity="1.000000" fill-rule="evenodd"/>
</svg>
