<svg width="6.000000" height="12.000000" viewBox="0 0 6 12" fill="none" xmlns="http://www.w3.org/2000/svg" xmlns:xlink="http://www.w3.org/1999/xlink">
	<desc>
			Created with Pixso.
	</desc>
	<defs/>
	<path id="image 1766 (Traced)" d="M2.68 0.01C1.9 0.15 1.29 0.69 1.06 1.45L1.01 1.62L1 4.19L0.99 6.76L0.81 6.95C0.41 7.36 0.13 7.91 0.03 8.49C-0.02 8.74 -0.01 9.32 0.04 9.57C0.21 10.37 0.67 11.07 1.32 11.5C1.86 11.85 2.35 12 3 12C3.64 12 4.13 11.85 4.67 11.5C5.32 11.07 5.78 10.37 5.95 9.57C6 9.32 6.01 8.74 5.96 8.49C5.86 7.91 5.58 7.36 5.18 6.95L5 6.76L4.99 4.19L4.98 1.62L4.93 1.45C4.66 0.59 3.94 0.03 3.07 0C2.92 -0.01 2.74 0 2.68 0.01ZM3.41 1.09C3.66 1.21 3.86 1.42 3.95 1.69C3.99 1.8 4 2.06 4 4.51L4.01 7.21L4.26 7.45C4.63 7.79 4.8 8.04 4.93 8.46C4.98 8.62 4.98 8.69 4.98 9C4.98 9.39 4.95 9.53 4.82 9.84C4.64 10.24 4.23 10.65 3.83 10.82C3.53 10.96 3.38 10.99 3 10.99C2.68 10.99 2.61 10.98 2.45 10.93C1.97 10.78 1.61 10.52 1.35 10.14C1.2 9.93 1.17 9.87 1.08 9.61C1.03 9.43 1.01 9.34 1 9.11C0.97 8.44 1.19 7.95 1.72 7.45L1.98 7.21L1.99 4.51C2 2.04 2 1.8 2.04 1.69C2.15 1.37 2.39 1.14 2.72 1.03C2.78 1.01 2.9 1 3.03 1C3.21 1.01 3.26 1.02 3.41 1.09ZM2.5 5.79L2.49 7.58L2.3 7.67C1.92 7.87 1.61 8.27 1.52 8.69C1.3 9.75 2.25 10.69 3.31 10.47C3.87 10.35 4.35 9.88 4.47 9.32C4.6 8.66 4.28 7.98 3.69 7.67L3.5 7.58L3.5 5.79L3.49 4L3 4L2.5 4L2.5 5.79Z" fill="#FFFFFF" fill-opacity="1.000000" fill-rule="evenodd"/>
</svg>
