<svg width="7.000000" height="10.000000" viewBox="0 0 7 10" fill="none" xmlns="http://www.w3.org/2000/svg" xmlns:xlink="http://www.w3.org/1999/xlink">
	<desc>
			Created with Pixso.
	</desc>
	<defs/>
	<path id="image 1769 (Traced)" d="M3.34 0.03C3.27 0.08 3.22 0.13 2.99 0.49C2.84 0.72 2.51 1.22 2.25 1.61C0.83 3.78 0.18 5.09 0.02 6.06C-0.02 6.29 -0.01 6.73 0.04 7.01C0.24 8.17 0.96 9.14 2 9.65C3.1 10.19 4.4 10.09 5.41 9.4C6.39 8.73 7 7.6 7 6.43C7 5.89 6.81 5.28 6.37 4.39C5.98 3.58 5.54 2.85 4.45 1.18C3.9 0.34 3.73 0.08 3.67 0.05C3.57 -0.02 3.45 -0.02 3.34 0.03ZM4.12 1.93C4.77 2.95 4.93 3.21 5.26 3.76C5.83 4.76 6.13 5.41 6.27 6.01C6.32 6.23 6.31 6.7 6.25 6.97C6.16 7.45 5.97 7.86 5.67 8.23C4.87 9.27 3.42 9.59 2.25 8.99C1.49 8.61 0.97 7.94 0.76 7.11C0.66 6.7 0.65 6.31 0.73 5.97C0.88 5.33 1.28 4.48 2.02 3.26C2.23 2.91 3.48 0.99 3.49 0.99C3.5 0.99 3.78 1.41 4.12 1.93ZM5.42 6.17C5.27 6.23 5.2 6.35 5.18 6.57C5.12 7.09 4.84 7.57 4.4 7.86C4.23 7.97 4.16 8.07 4.16 8.21C4.16 8.49 4.43 8.66 4.68 8.52C5.11 8.29 5.54 7.77 5.72 7.27C5.84 6.94 5.89 6.47 5.83 6.35C5.75 6.2 5.56 6.11 5.42 6.17Z" fill="#FFFFFF" fill-opacity="1.000000" fill-rule="evenodd"/>
</svg>
