<svg width="10.000000" height="10.000000" viewBox="0 0 10 10" fill="none" xmlns="http://www.w3.org/2000/svg" xmlns:xlink="http://www.w3.org/1999/xlink">
	<desc>
			Created with Pixso.
	</desc>
	<defs/>
	<path id="image 225 (Traced)" d="M0.2 0.05C0.15 0.07 0.09 0.13 0.05 0.17L0 0.25L0 3.83L0 7.4L0.05 7.48C0.09 7.52 0.15 7.58 0.2 7.61L0.29 7.66L1.39 7.66L2.48 7.66L2.83 4.86C3.05 3.04 3.18 2.02 3.21 1.95C3.26 1.83 3.41 1.67 3.55 1.6C3.59 1.58 3.7 1.54 3.79 1.52C3.94 1.49 3.99 1.49 5.19 1.6C5.87 1.66 6.43 1.71 6.44 1.71C6.45 1.71 6.45 1.38 6.45 0.98C6.45 0.25 6.45 0.25 6.39 0.17C6.36 0.13 6.3 0.07 6.25 0.05L6.16 0L3.22 0L0.29 0L0.2 0.05ZM3.8 1.89C3.57 1.99 3.62 1.74 3.15 5.56C2.91 7.44 2.72 9.04 2.72 9.11C2.72 9.27 2.81 9.4 2.97 9.45C3.04 9.47 4.07 9.57 5.93 9.74L8.78 10L8.9 9.94C9.04 9.89 9.12 9.79 9.15 9.67C9.18 9.49 10 2.81 10 2.72C10 2.66 9.98 2.59 9.96 2.56C9.91 2.49 9.79 2.39 9.72 2.37C9.67 2.36 4.02 1.84 3.94 1.84C3.93 1.84 3.86 1.87 3.8 1.89Z" fill="#ECB11B" fill-opacity="1.000000" fill-rule="evenodd"/>
</svg>
