<svg width="12.000000" height="12.000000" viewBox="0 0 12 12" fill="none" xmlns="http://www.w3.org/2000/svg" xmlns:xlink="http://www.w3.org/1999/xlink">
	<desc>
			Created with Pixso.
	</desc>
	<defs/>
	<path id="image 225 (Traced)" d="M0.24 0.06C0.18 0.09 0.1 0.16 0.07 0.21L0 0.3L0 4.59L0 8.89L0.07 8.98C0.1 9.03 0.18 9.09 0.24 9.13L0.35 9.19L1.66 9.19L2.98 9.19L3.39 5.83C3.66 3.65 3.82 2.42 3.86 2.34C3.91 2.2 4.1 2 4.26 1.92C4.31 1.89 4.44 1.85 4.55 1.83C4.73 1.79 4.79 1.79 6.23 1.92C7.05 1.99 7.72 2.05 7.73 2.05C7.74 2.05 7.75 1.66 7.75 1.17C7.75 0.31 7.75 0.3 7.67 0.21C7.64 0.16 7.56 0.09 7.5 0.06L7.39 0L3.87 0L0.35 0L0.24 0.06ZM4.56 2.27C4.29 2.39 4.34 2.09 3.77 6.68C3.5 8.93 3.27 10.85 3.26 10.93C3.26 11.13 3.37 11.28 3.56 11.34C3.65 11.37 4.88 11.49 7.12 11.69L10.54 12L10.68 11.93C10.84 11.87 10.95 11.74 10.98 11.6C11.02 11.39 12 3.37 12 3.26C12 3.2 11.97 3.11 11.95 3.07C11.9 2.99 11.75 2.87 11.66 2.84C11.61 2.83 4.83 2.21 4.73 2.21C4.71 2.21 4.63 2.24 4.56 2.27Z" fill="#ECB11B" fill-opacity="1.000000" fill-rule="evenodd"/>
</svg>
